<svg width="65" height="64" viewBox="0 0 65 64" fill="none" xmlns="http://www.w3.org/2000/svg">
<path d="M60.75 28C60.7577 24.5656 60.085 21.1637 58.7705 17.9908C57.4561 14.8179 55.5261 11.9368 53.092 9.514L49.578 6L46.75 8.828L50.264 12.342C52.3204 14.398 53.9516 16.8389 55.0646 19.5253C56.1775 22.2118 56.7503 25.0911 56.7503 27.999C56.7503 30.9069 56.1775 33.7862 55.0646 36.4727C53.9516 39.1591 52.3204 41.6 50.264 43.656L44.75 49.172L47.578 52L53.092 46.486C55.5261 44.0632 57.4561 41.1821 58.7705 38.0092C60.085 34.8363 60.7577 31.4344 60.75 28Z" fill="#00467B"/>
<path d="M34.75 24C35.8546 24 36.75 23.1046 36.75 22C36.75 20.8954 35.8546 20 34.75 20C33.6454 20 32.75 20.8954 32.75 22C32.75 23.1046 33.6454 24 34.75 24Z" fill="#00467B"/>
<path d="M44.75 28C44.7577 24.5656 44.085 21.1637 42.7705 17.9908C41.4561 14.8179 39.5261 11.9368 37.092 9.514L33.578 6L30.75 8.828L34.264 12.342C36.3204 14.398 37.9516 16.8389 39.0646 19.5253C40.1775 22.2118 40.7503 25.0911 40.7503 27.999C40.7503 30.9069 40.1775 33.7862 39.0646 36.4727C37.9516 39.1591 36.3204 41.6 34.264 43.656L28.75 49.172L31.578 52L37.092 46.486C39.5261 44.0632 41.4561 41.1821 42.7705 38.0092C44.085 34.8363 44.7577 31.4344 44.75 28Z" fill="#00467B"/>
<path d="M50.75 24C51.8546 24 52.75 23.1046 52.75 22C52.75 20.8954 51.8546 20 50.75 20C49.6454 20 48.75 20.8954 48.75 22C48.75 23.1046 49.6454 24 50.75 24Z" fill="#00467B"/>
<path d="M18.75 24C19.8546 24 20.75 23.1046 20.75 22C20.75 20.8954 19.8546 20 18.75 20C17.6454 20 16.75 20.8954 16.75 22C16.75 23.1046 17.6454 24 18.75 24Z" fill="#00467B"/>
<path d="M19.5785 47.9999L21.0925 46.4859C23.5204 44.0585 25.4465 41.1765 26.7605 38.0047C28.0746 34.8328 28.7509 31.4332 28.7509 27.9999C28.7509 24.5666 28.0746 21.1669 26.7605 17.9951C25.4465 14.8232 23.5204 11.9413 21.0925 9.51388L16.7505 5.17188L12.4085 9.51388C9.98047 11.9413 8.05444 14.8232 6.74039 17.9951C5.42634 21.1669 4.75 24.5666 4.75 27.9999C4.75 31.4332 5.42634 34.8328 6.74039 38.0047C8.05444 41.1765 9.98047 44.0585 12.4085 46.4859L13.9225 47.9999L5.33646 56.5859C5.05684 56.8656 4.86643 57.2219 4.78929 57.6098C4.71216 57.9977 4.75176 58.3998 4.9031 58.7652C5.05444 59.1306 5.31072 59.4429 5.63954 59.6627C5.96836 59.8824 6.35496 59.9998 6.75046 59.9999H26.7505C27.146 59.9998 27.5326 59.8824 27.8614 59.6627C28.1902 59.4429 28.4465 59.1306 28.5978 58.7652C28.7492 58.3998 28.7888 57.9977 28.7116 57.6098C28.6345 57.2219 28.4441 56.8656 28.1645 56.5859L19.5785 47.9999ZM8.75046 27.9999C8.74261 25.0907 9.31182 22.2089 10.4251 19.5212C11.5385 16.8335 13.1738 14.3933 15.2365 12.3419L16.7505 10.8279L18.2645 12.3419C20.3208 14.3978 21.9521 16.8387 23.065 19.5252C24.1779 22.2116 24.7508 25.091 24.7508 27.9989C24.7508 30.9067 24.1779 33.7861 23.065 36.4726C21.9521 39.159 20.3208 41.5999 18.2645 43.6559L16.7505 45.1719L15.2365 43.6559C13.174 41.6046 11.5388 39.1648 10.4255 36.4774C9.31221 33.7901 8.74288 30.9087 8.75046 27.9999ZM11.5785 55.9999L16.7505 50.8279L21.9225 55.9999H11.5785Z" fill="#00467B"/>
</svg>
