<svg width="67" height="67" viewBox="0 0 67 67" fill="none" xmlns="http://www.w3.org/2000/svg">
<path d="M64.9062 54.9609H62.2891V33.5C62.2891 32.5282 61.903 31.5963 61.2159 30.9091C60.5287 30.222 59.5968 29.8359 58.625 29.8359H43.4453V12.5625C43.4453 11.5907 43.0593 10.6588 42.3721 9.97162C41.685 9.28447 40.753 8.89844 39.7812 8.89844H14.6562C13.6845 8.89844 12.7525 9.28447 12.0654 9.97162C11.3782 10.6588 10.9922 11.5907 10.9922 12.5625V54.9609H8.375C7.95853 54.9609 7.55911 55.1264 7.26462 55.4209C6.97013 55.7154 6.80469 56.1148 6.80469 56.5312C6.80469 56.9477 6.97013 57.3471 7.26462 57.6416C7.55911 57.9361 7.95853 58.1016 8.375 58.1016H64.9062C65.3227 58.1016 65.7221 57.9361 66.0166 57.6416C66.3111 57.3471 66.4766 56.9477 66.4766 56.5312C66.4766 56.1148 66.3111 55.7154 66.0166 55.4209C65.7221 55.1264 65.3227 54.9609 64.9062 54.9609ZM58.625 32.9766C58.7638 32.9766 58.897 33.0317 58.9951 33.1299C59.0933 33.228 59.1484 33.3612 59.1484 33.5V54.9609H43.4453V32.9766H58.625ZM14.1328 12.5625C14.1328 12.4237 14.188 12.2905 14.2861 12.1924C14.3843 12.0942 14.5174 12.0391 14.6562 12.0391H39.7812C39.9201 12.0391 40.0532 12.0942 40.1514 12.1924C40.2495 12.2905 40.3047 12.4237 40.3047 12.5625V54.9609H35.0703V41.875C35.0703 41.4585 34.9049 41.0591 34.6104 40.7646C34.3159 40.4701 33.9165 40.3047 33.5 40.3047H20.9375C20.521 40.3047 20.1216 40.4701 19.8271 40.7646C19.5326 41.0591 19.3672 41.4585 19.3672 41.875V54.9609H14.1328V12.5625ZM31.9297 54.9609H22.5078V43.4453H31.9297V54.9609ZM19.3672 25.125C19.3672 24.7085 19.5326 24.3091 19.8271 24.0146C20.1216 23.7201 20.521 23.5547 20.9375 23.5547H25.6484V18.8438C25.6484 18.4273 25.8139 18.0279 26.1084 17.7334C26.4029 17.4389 26.8023 17.2734 27.2188 17.2734C27.6352 17.2734 28.0346 17.4389 28.3291 17.7334C28.6236 18.0279 28.7891 18.4273 28.7891 18.8438V23.5547H33.5C33.9165 23.5547 34.3159 23.7201 34.6104 24.0146C34.9049 24.3091 35.0703 24.7085 35.0703 25.125C35.0703 25.5415 34.9049 25.9409 34.6104 26.2354C34.3159 26.5299 33.9165 26.6953 33.5 26.6953H28.7891V31.4062C28.7891 31.8227 28.6236 32.2221 28.3291 32.5166C28.0346 32.8111 27.6352 32.9766 27.2188 32.9766C26.8023 32.9766 26.4029 32.8111 26.1084 32.5166C25.8139 32.2221 25.6484 31.8227 25.6484 31.4062V26.6953H20.9375C20.521 26.6953 20.1216 26.5299 19.8271 26.2354C19.5326 25.9409 19.3672 25.5415 19.3672 25.125Z" fill="#00467B"/>
</svg>
