<svg width="49" height="48" viewBox="0 0 49 48" fill="none" xmlns="http://www.w3.org/2000/svg">
<path d="M8.375 6.00018H20.375V10.0002H8.375V6.00018ZM2.375 14.0002H12.375V18.0002H2.375V14.0002ZM6.375 38.0002H16.375V42.0002H6.375V38.0002ZM44.795 37.2202L40.235 29.0002C39.6828 28.0514 38.7763 27.3608 37.715 27.0802L32.375 25.7402C32.295 24.8002 32.055 23.9002 31.595 23.0802L39.515 9.90018C40.815 7.74018 40.115 4.94018 37.955 3.64018C37.1024 3.13646 36.1095 2.92266 35.1251 3.03083C34.1407 3.139 33.2179 3.56332 32.495 4.24018L25.635 10.6602C24.835 11.4002 24.375 12.4602 24.375 13.5602V20.3602C23.435 20.7002 22.595 21.2602 21.915 22.0002H6.935C4.375 22.0002 2.375 24.0002 2.375 26.5602C2.375 28.6002 3.715 30.3802 5.675 30.9402L14.695 33.5202C15.055 33.6202 15.435 33.6802 15.795 33.6802C16.515 33.6802 17.235 33.4802 17.855 33.1002L22.375 30.4202C22.915 30.9402 23.595 31.3602 24.375 31.6402V42.0002C22.175 42.0002 20.375 43.8002 20.375 46.0002H32.375C32.375 43.8002 30.575 42.0002 28.375 42.0002V33.4402L37.595 42.6602C38.495 43.5602 39.655 44.0002 40.815 44.0002C41.975 44.0002 43.155 43.5602 44.035 42.6602C45.475 41.2202 45.795 39.0002 44.795 37.2202ZM15.815 29.6802L6.775 27.1002C6.535 27.0002 6.375 26.8002 6.375 26.5602C6.375 26.2602 6.635 26.0002 6.935 26.0002H20.375C20.375 26.3002 20.375 26.6002 20.455 26.8802L15.815 29.6802ZM26.375 28.0002C25.275 28.0002 24.375 27.1002 24.375 26.0002C24.375 24.9002 25.275 24.0002 26.375 24.0002C27.475 24.0002 28.375 24.9002 28.375 26.0002C28.375 27.1002 27.475 28.0002 26.375 28.0002ZM28.375 20.2802V13.5602L35.235 7.14018C35.375 7.00018 35.615 6.90018 35.915 7.06018C36.175 7.22018 36.275 7.56018 36.115 7.82018L28.635 20.3002L28.375 20.2802ZM41.215 39.8402C41.115 39.9402 40.735 40.1602 40.375 39.8402L30.715 30.1402C30.875 30.0002 31.035 29.7802 31.195 29.5802L36.755 31.0002L41.315 39.1602C41.435 39.3802 41.375 39.6602 41.215 39.8402Z" fill="#00467B"/>
</svg>
