<svg width="43" height="43" viewBox="0 0 43 43" fill="none" xmlns="http://www.w3.org/2000/svg">
<path d="M41.0267 11.4221H35.3574V9.97891C36.3726 9.6763 37.245 9.01837 37.815 8.12542C38.385 7.23248 38.6146 6.1642 38.4617 5.11592C38.3088 4.06765 37.7836 3.10945 36.9823 2.41653C36.181 1.72361 35.157 1.34229 34.0977 1.34229C33.0383 1.34229 32.0143 1.72361 31.213 2.41653C30.4117 3.10945 29.8866 4.06765 29.7337 5.11592C29.5807 6.1642 29.8103 7.23248 30.3803 8.12542C30.9503 9.01837 31.8227 9.6763 32.8379 9.97891V11.4221H10.1621V9.97891C11.176 9.67523 12.0468 9.01708 12.6157 8.12458C13.1846 7.23208 13.4135 6.16477 13.2607 5.11748C13.1079 4.07019 12.5836 3.11278 11.7835 2.42001C10.9833 1.72724 9.96072 1.34532 8.90234 1.34397C7.84277 1.34327 6.81838 1.72419 6.01669 2.41701C5.21499 3.10982 4.68962 4.06818 4.53674 5.11667C4.38385 6.16516 4.61368 7.23364 5.18416 8.12653C5.75463 9.01943 6.62759 9.67701 7.64325 9.97891V11.4221H1.97397C1.89118 11.422 1.80919 11.4382 1.73269 11.4699C1.65619 11.5015 1.58668 11.5479 1.52814 11.6065C1.4696 11.665 1.42318 11.7345 1.39154 11.811C1.3599 11.8875 1.34366 11.9695 1.34375 12.0523V24.65C1.34375 24.9987 1.62527 25.2802 1.97397 25.2802H7.64325V29.6897H5.33334V32.2092H7.64258V39.4332C7.64258 39.9969 6.38281 41.6565 6.38281 41.6565H11.4219C11.4219 41.6565 10.1621 39.9969 10.1621 39.4319V32.2086H32.8379V39.4326C32.8379 39.9969 31.5781 41.6565 31.5781 41.6565H36.6172C36.6172 41.6565 35.3574 39.9969 35.3574 39.4319V32.2086H37.6667V29.689H35.3574V25.2795H41.0267C41.1095 25.2796 41.1915 25.2634 41.268 25.2317C41.3445 25.2001 41.414 25.1537 41.4725 25.0951C41.5311 25.0366 41.5775 24.9671 41.6091 24.8906C41.6408 24.8141 41.657 24.7321 41.6569 24.6493V12.0516C41.6564 11.8847 41.5898 11.7248 41.4717 11.6068C41.3536 11.4889 41.1936 11.4224 41.0267 11.4221ZM27.1162 12.6819H33.7725L29.0868 24.0198H22.4319L27.1162 12.6819ZM5.75327 5.75348C5.75327 4.01534 7.16353 2.60373 8.90302 2.60373C10.6425 2.60373 12.0528 4.01534 12.0528 5.75348C12.0528 6.58885 11.7209 7.39 11.1302 7.98069C10.5395 8.57139 9.73838 8.90323 8.90302 8.90323C8.06765 8.90323 7.2665 8.57139 6.67581 7.98069C6.08511 7.39 5.75327 6.58885 5.75327 5.75348ZM2.78492 23.8303C2.66876 23.7133 2.60355 23.5551 2.60352 23.3902V13.3121C2.60352 12.9634 2.88503 12.6819 3.23373 12.6819H7.654L2.78492 23.8303ZM8.90234 31.411C8.77975 31.411 8.66217 31.3623 8.57548 31.2757C8.4888 31.189 8.44009 31.0714 8.44009 30.9488C8.44009 30.8262 8.4888 30.7086 8.57548 30.6219C8.66217 30.5352 8.77975 30.4865 8.90234 30.4865C9.02494 30.4865 9.14252 30.5352 9.2292 30.6219C9.31589 30.7086 9.36459 30.8262 9.36459 30.9488C9.36459 31.0714 9.31589 31.189 9.2292 31.2757C9.14252 31.3623 9.02494 31.411 8.90234 31.411ZM8.93795 24.0198L13.891 12.6819H20.5695L15.8838 24.0198H8.93795ZM32.8379 29.689H10.1621V25.2795H32.8379V29.689ZM34.0977 31.411C33.9751 31.411 33.8575 31.3623 33.7708 31.2757C33.6841 31.189 33.6354 31.0714 33.6354 30.9488C33.6354 30.8262 33.6841 30.7086 33.7708 30.6219C33.8575 30.5352 33.9751 30.4865 34.0977 30.4865C34.2203 30.4865 34.3378 30.5352 34.4245 30.6219C34.5112 30.7086 34.5599 30.8262 34.5599 30.9488C34.5599 31.0714 34.5112 31.189 34.4245 31.2757C34.3378 31.3623 34.2203 31.411 34.0977 31.411ZM34.0977 8.90256C33.2623 8.90256 32.4611 8.57072 31.8704 7.98002C31.2798 7.38933 30.9479 6.58818 30.9479 5.75281C30.9479 4.91745 31.2798 4.1163 31.8704 3.5256C32.4611 2.93491 33.2623 2.60306 34.0977 2.60306C34.933 2.60306 35.7342 2.93491 36.3249 3.5256C36.9156 4.1163 37.2474 4.91745 37.2474 5.75281C37.2474 6.58818 36.9156 7.38933 36.3249 7.98002C35.7342 8.57072 34.933 8.90256 34.0977 8.90256ZM40.3965 23.3902C40.3966 23.473 40.3803 23.555 40.3487 23.6315C40.3171 23.708 40.2706 23.7775 40.2121 23.836C40.1536 23.8946 40.084 23.941 40.0075 23.9726C39.931 24.0043 39.8491 24.0205 39.7663 24.0204H35.6349L40.2319 12.8962C40.3362 13.0098 40.3948 13.1579 40.3965 13.3121V23.3902Z" fill="#00467B"/>
</svg>
