<svg width="61" height="61" viewBox="0 0 61 61" fill="none" xmlns="http://www.w3.org/2000/svg">
<path d="M15.2508 10.1665H22.8758C22.8758 10.1665 22.8758 17.7915 30.5008 17.7915C38.1258 17.7915 38.1258 10.1665 38.1258 10.1665H45.7508M45.7508 27.9582V49.3082C45.7508 49.7126 45.5901 50.1005 45.3041 50.3865C45.0181 50.6725 44.6302 50.8332 44.2258 50.8332H16.7758C16.3713 50.8332 15.9834 50.6725 15.6974 50.3865C15.4114 50.1005 15.2508 49.7126 15.2508 49.3082V27.9582M45.7508 10.1665L57.0434 14.683C57.4189 14.8334 57.7192 15.1267 57.8784 15.4985C58.0376 15.8703 58.0426 16.2901 57.8923 16.6655L53.7596 27C53.6463 27.2828 53.4509 27.5253 53.1986 27.6961C52.9463 27.8669 52.6486 27.9582 52.3439 27.9582H45.7508M15.2508 10.1665L3.95815 14.683C3.58269 14.8334 3.28232 15.1267 3.12312 15.4985C2.96392 15.8703 2.95892 16.2901 3.10923 16.6655L7.24198 27C7.35523 27.2828 7.55061 27.5253 7.80295 27.6961C8.05528 27.8669 8.35299 27.9582 8.65769 27.9582H15.2508" stroke="#00467B" stroke-width="2" stroke-linecap="round" stroke-linejoin="round"/>
</svg>
