<svg width="123" height="97" viewBox="0 0 123 97" fill="none" xmlns="http://www.w3.org/2000/svg">
<path d="M46.541 69.8542H68.8744M68.8744 69.8542V62.875H33.2806C32.6329 62.875 32.3091 62.875 32.0383 62.9308C31.4969 63.0383 30.9995 63.3038 30.6089 63.6939C30.2183 64.0839 29.9522 64.581 29.8441 65.1223C29.791 65.3931 29.791 65.7169 29.791 66.3646C29.791 67.0123 29.791 67.3389 29.8468 67.6069C29.9543 68.1483 30.2198 68.6457 30.6099 69.0363C30.9999 69.4268 31.497 69.693 32.0383 69.8011C32.3091 69.8542 32.6329 69.8542 33.2806 69.8542H35.3743M68.8744 69.8542H74.4577M68.8744 69.8542V47.5208C68.8744 44.8883 68.8744 43.5734 69.6923 42.7555C70.5103 41.9375 71.8251 41.9375 74.4577 41.9375H76.5096C79.5971 41.9375 81.1437 41.9375 82.4223 42.6633C83.7009 43.3892 84.4965 44.7096 86.085 47.3589L89.6164 53.2438C90.4065 54.5614 90.8029 55.2203 91.0039 55.9517C91.2049 56.6831 91.2077 57.4508 91.2077 58.989V64.2708C91.2077 66.9034 91.2077 68.2183 90.3897 69.0362C89.5718 69.8542 88.2569 69.8542 85.6244 69.8542M74.4577 69.8542C74.4577 71.335 75.0459 72.7551 76.093 73.8022C77.1401 74.8493 78.5602 75.4375 80.041 75.4375C81.5218 75.4375 82.942 74.8493 83.989 73.8022C85.0361 72.7551 85.6244 71.335 85.6244 69.8542M74.4577 69.8542C74.4577 68.3734 75.0459 66.9532 76.093 65.9062C77.1401 64.8591 78.5602 64.2708 80.041 64.2708C81.5218 64.2708 82.942 64.8591 83.989 65.9062C85.0361 66.9532 85.6244 68.3734 85.6244 69.8542M89.8119 55.8958H82.8327C80.2001 55.8958 78.8853 55.8958 78.0673 55.0779C77.2493 54.2599 77.2494 52.945 77.2494 50.3125V48.9167" stroke="#00467B" stroke-width="2" stroke-linecap="round" stroke-linejoin="round"/>
<path d="M51.4265 33.5625V55.8958M40.2599 55.8958V33.5625M46.5411 69.8542C46.5411 71.335 45.9529 72.7551 44.9058 73.8022C43.8587 74.8493 42.4386 75.4375 40.9578 75.4375C39.477 75.4375 38.0568 74.8493 37.0098 73.8022C35.9627 72.7551 35.3744 71.335 35.3744 69.8542C35.3744 68.3734 35.9627 66.9532 37.0098 65.9062C38.0568 64.8591 39.477 64.2708 40.9578 64.2708C42.4386 64.2708 43.8587 64.8591 44.9058 65.9062C45.9529 66.9532 46.5411 68.3734 46.5411 69.8542ZM30.3578 39.291C29.976 41.0784 29.786 42.9014 29.7911 44.7292C29.7911 46.647 29.9921 48.4812 30.3578 50.1673C30.8324 52.3365 31.0669 53.4224 32.5995 54.6619C34.135 55.8958 35.6759 55.8958 38.7579 55.8958H52.9284C56.0104 55.8958 57.5514 55.8958 59.0869 54.6591C60.6223 53.4224 60.8568 52.3365 61.3286 50.1645C61.6943 48.4812 61.8953 46.647 61.8953 44.7292C61.8953 42.8113 61.6943 40.9772 61.3286 39.291C60.854 37.1191 60.6195 36.0359 59.0869 34.7964C57.5514 33.5625 56.0104 33.5625 52.9284 33.5625H38.7579C35.6759 33.5625 34.135 33.5625 32.5995 34.7992C31.0641 36.0359 30.8296 37.1163 30.3578 39.291Z" stroke="#00467B" stroke-width="2" stroke-linecap="round" stroke-linejoin="round"/>
</svg>
