<svg width="70" height="70" viewBox="0 0 70 70" fill="none" xmlns="http://www.w3.org/2000/svg">
<path d="M32.0827 18.9585H29.166V21.8752H32.0827V18.9585ZM34.9993 18.9585H37.916V21.8752H34.9993V18.9585ZM43.7493 18.9585H40.8327V21.8752H43.7493V18.9585ZM29.166 24.7918H32.0827V27.7085H29.166V24.7918ZM37.916 24.7918H34.9993V27.7085H37.916V24.7918ZM40.8327 24.7918H43.7493V27.7085H40.8327V24.7918ZM32.0827 30.6252H29.166V33.5418H32.0827V30.6252ZM34.9993 30.6252H37.916V33.5418H34.9993V30.6252ZM43.7493 30.6252H40.8327V33.5418H43.7493V30.6252ZM29.166 36.4585H32.0827V39.3752H29.166V36.4585ZM37.916 36.4585H34.9993V39.3752H37.916V36.4585ZM29.166 42.2918H32.0827V45.2085H29.166V42.2918ZM37.916 42.2918H34.9993V45.2085H37.916V42.2918ZM29.166 48.1252H32.0827V51.0418H29.166V48.1252ZM37.916 48.1252H34.9993V51.0418H37.916V48.1252ZM29.166 53.9585H32.0827V56.8752H29.166V53.9585ZM37.916 53.9585H34.9993V56.8752H37.916V53.9585ZM45.2077 43.7502H49.5827V40.8335H45.2077V43.7502ZM49.5827 49.5835H45.2077V46.6668H49.5827V49.5835ZM45.2077 55.4168H49.5827V52.5002H45.2077V55.4168Z" fill="#00467B"/>
<path fill-rule="evenodd" clip-rule="evenodd" d="M24.791 5.8335L48.1244 14.5835V35.0002H53.9577C54.3445 35.0002 54.7154 35.1538 54.9889 35.4273C55.2624 35.7008 55.416 36.0717 55.416 36.4585V61.2502H56.8744C57.2611 61.2502 57.6321 61.4038 57.9055 61.6773C58.179 61.9508 58.3327 62.3217 58.3327 62.7085C58.3327 63.0953 58.179 63.4662 57.9055 63.7397C57.6321 64.0132 57.2611 64.1668 56.8744 64.1668H13.1243C12.7376 64.1668 12.3666 64.0132 12.0932 63.7397C11.8197 63.4662 11.666 63.0953 11.666 62.7085C11.666 62.3217 11.8197 61.9508 12.0932 61.6773C12.3666 61.4038 12.7376 61.2502 13.1243 61.2502H14.5827V30.6252C14.5827 30.2384 14.7363 29.8675 15.0098 29.594C15.2833 29.3205 15.6542 29.1668 16.041 29.1668H18.9577V18.9585H21.8743V29.1668H24.791V5.8335ZM27.7077 10.0422L45.2077 16.6047V35.0002H40.8327C40.4459 35.0002 40.075 35.1538 39.8015 35.4273C39.528 35.7008 39.3743 36.0717 39.3743 36.4585V61.2502H27.7077V10.0422ZM17.4993 32.0835V61.2502H24.791V32.0835H17.4993ZM52.4994 61.2502H49.5827V58.3335H45.2077V61.2502H42.291V37.9168H52.4994V61.2502Z" fill="#00467B"/>
</svg>
