<svg width="61" height="61" viewBox="0 0 61 61" fill="none" xmlns="http://www.w3.org/2000/svg">
<path d="M35.5824 48.2917V17.7917C35.5824 16.4435 35.0469 15.1505 34.0936 14.1972C33.1402 13.2439 31.8473 12.7083 30.4991 12.7083H22.8741M38.1241 48.2917H22.8741M48.2908 48.2917H53.3741C54.0482 48.2917 54.6947 48.0239 55.1713 47.5472C55.648 47.0706 55.9158 46.4241 55.9158 45.75V36.4729C55.9124 35.8996 55.7154 35.3443 55.3566 34.8971L46.5116 23.8408C46.2749 23.5413 45.9738 23.2989 45.6306 23.1317C45.2873 22.9645 44.9109 22.8768 44.5291 22.875H35.5824M5.08243 33.0417V45.75C5.08243 46.4241 5.35021 47.0706 5.82687 47.5472C6.30352 48.0239 6.95 48.2917 7.6241 48.2917H12.7074M10.1658 7.625L5.46368 13.0896C5.274 13.2631 5.14201 13.4905 5.08549 13.7413C5.02896 13.992 5.0506 14.2541 5.1475 14.4922C5.2444 14.7303 5.4119 14.933 5.62747 15.073C5.84305 15.213 6.09634 15.2837 6.35326 15.2754H11.8178C12.0949 15.2106 12.386 15.2468 12.6387 15.3774C12.8915 15.5081 13.0893 15.7247 13.1965 15.9883C13.3038 16.2518 13.3134 16.545 13.2238 16.815C13.1341 17.085 12.951 17.3142 12.7074 17.4613L7.6241 22.9258" stroke="#00467B" stroke-width="2.66667" stroke-linecap="round" stroke-linejoin="round"/>
<path d="M43.2083 53.3752C46.0158 53.3752 48.2917 51.0993 48.2917 48.2918C48.2917 45.4844 46.0158 43.2085 43.2083 43.2085C40.4009 43.2085 38.125 45.4844 38.125 48.2918C38.125 51.0993 40.4009 53.3752 43.2083 53.3752Z" stroke="#00467B" stroke-width="2.66667" stroke-linecap="round" stroke-linejoin="round"/>
<path d="M17.7904 53.3752C20.5978 53.3752 22.8737 51.0993 22.8737 48.2918C22.8737 45.4844 20.5978 43.2085 17.7904 43.2085C14.9829 43.2085 12.707 45.4844 12.707 48.2918C12.707 51.0993 14.9829 53.3752 17.7904 53.3752Z" stroke="#00467B" stroke-width="2.66667" stroke-linecap="round" stroke-linejoin="round"/>
</svg>
