<svg width="43" height="46" viewBox="0 0 43 46" fill="none" xmlns="http://www.w3.org/2000/svg">
<path d="M41.3413 36.1387L27.1331 12.4631V2.875H28.5706C29.3612 2.875 30.0081 2.22813 30.0081 1.4375C30.0081 0.646875 29.3612 0 28.5706 0H14.1956C13.4049 0 12.7581 0.646875 12.7581 1.4375C12.7581 2.22813 13.4049 2.875 14.1956 2.875H15.6331V12.4631L1.42481 36.1387C-1.82969 41.561 0.683057 46 7.00806 46H35.7581C42.0831 46 44.5958 41.5639 41.3413 36.1387ZM9.21031 28.75L18.5081 13.2538V2.875H24.2581V13.2538L33.5558 28.75H9.21031Z" fill="#00467B"/>
</svg>
