<svg width="55" height="55" viewBox="0 0 55 55" fill="none" xmlns="http://www.w3.org/2000/svg">
<path d="M46.2756 29.7892C47.1927 31.3536 47.7913 33.0839 48.037 34.8805C48.2826 36.6772 48.1705 38.5046 47.707 40.2578C47.2435 42.0109 46.4378 43.655 45.3363 45.0955C44.2348 46.5359 42.8593 47.7443 41.2889 48.651C39.7185 49.5577 37.9843 50.1448 36.186 50.3785C34.3878 50.6123 32.5611 50.488 30.8111 50.0129C29.0611 49.5378 27.4224 48.7212 25.9892 47.6102C24.5561 46.4992 23.3569 45.1156 22.4606 43.5393M46.2756 29.7892C44.4393 26.6569 41.4386 24.3781 37.9283 23.45C34.418 22.5219 30.683 23.02 27.5386 24.8355C24.3941 26.651 22.0954 29.6365 21.1441 33.1406C20.1928 36.6447 20.666 40.3828 22.4606 43.5393M46.2756 29.7892L22.4606 43.5393M23.0152 12.7003L34.6683 5.81384C38.9583 3.27925 44.4446 4.78259 46.9219 9.17571C47.8686 10.8566 48.2721 12.7892 48.0773 14.7085C47.8824 16.6278 47.0986 18.4398 45.8333 19.8961M23.0152 12.7003L11.3621 19.5868C7.0721 22.1213 5.60085 27.7359 8.07814 32.1268C8.77039 33.3721 9.75035 34.4339 10.9363 35.2236C12.1223 36.0133 13.4799 36.5081 14.8958 36.6665M23.0152 12.7003L26.3542 18.3332" stroke="#00467B" stroke-width="2" stroke-linecap="round" stroke-linejoin="round"/>
</svg>
