<svg width="48" height="48" viewBox="0 0 48 48" fill="none" xmlns="http://www.w3.org/2000/svg">
<path d="M10.36 10.9L6.8 9.1L9.32 4H26.26L28.8 9.1L25.24 10.88L23.8 8H11.8L10.36 10.9ZM31 16H22L20.4 10H15.2L13.62 16H4.56L2 21.1L5.58 22.88L7 20H28.56L30 22.9L33.58 21.12L31 16ZM29.34 44H25.2L24.72 42.2L17.8 31.8L10.86 42.2L10.4 44H6.26L12 22H16.18L15.46 24.7L17.8 28.2L20.12 24.7L19.42 22H23.56L29.34 44ZM16.6 30L14.8 27.3L12.44 36.26L16.6 30ZM23.16 36.24L20.8 27.28L19 30L23.16 36.24ZM46 32L38 24V30H30V34H38V40L46 32Z" fill="#00467B"/>
</svg>
