<svg width="63" height="63" viewBox="0 0 63 63" fill="none" xmlns="http://www.w3.org/2000/svg">
<path d="M9.68688 23.94C9.46884 23.7061 9.2046 23.5199 8.9109 23.3934C8.61719 23.2669 8.30041 23.2027 7.98062 23.205C6.90437 23.205 6.09062 23.7038 5.56562 24.7275C5.04062 25.7513 5.17187 26.7225 6.01187 27.6412C9.10937 30.4237 11.0781 32.3925 11.9181 33.5475C12.9944 35.0175 13.5194 37.17 13.5194 39.9525C13.5194 43.3913 14.8319 45.9375 17.4569 47.6963C18.9269 48.8512 20.5281 49.7175 22.3131 50.295V40.0838C22.3131 37.6163 21.4469 35.5688 19.7931 33.915M43.2081 34.0463C41.5806 35.6737 40.6881 37.695 40.6881 40.0838V50.4C43.2081 49.5075 45.3081 48.1162 47.0406 46.2787C48.7469 44.4412 49.6131 42.42 49.6131 39.9525C49.6131 36.9862 50.1119 34.86 51.1094 33.5475C51.3456 33.1275 51.7919 32.6025 52.5006 31.9463C53.1044 31.29 53.7344 30.66 54.3644 30.0825C54.9681 29.5312 55.5719 28.9538 56.1494 28.3763L57.0156 27.6412C57.2503 27.4182 57.4367 27.1494 57.5631 26.8513C57.6895 26.5533 57.7534 26.2325 57.7506 25.9087C57.7506 25.1737 57.5144 24.5175 57.0156 23.9925C56.5169 23.4675 55.9131 23.205 55.1256 23.205C54.3381 23.205 53.8131 23.4412 53.3144 23.94M31.5006 52.5C33.3119 52.5 35.0706 52.2637 36.7506 51.765V42.3937C36.7506 40.845 36.2781 39.6375 35.2019 38.4825C34.1256 37.3275 32.8919 36.75 31.5006 36.75C30.1094 36.75 28.8756 37.275 27.8781 38.3512C26.8281 39.375 26.2506 40.5825 26.2506 42.1575V51.765C27.9306 52.2637 29.6894 52.5 31.5006 52.5ZM23.6256 22.3125C23.6256 24.4913 21.8669 26.25 19.6881 26.25C17.5094 26.25 15.7506 24.4913 15.7506 22.3125C15.7506 20.1337 17.5094 18.375 19.6881 18.375C21.8669 18.375 23.6256 20.1337 23.6256 22.3125ZM47.2506 22.3125C47.2506 24.4913 45.4919 26.25 43.3131 26.25C41.1344 26.25 39.3756 24.4913 39.3756 22.3125C39.3756 20.1337 41.1344 18.375 43.3131 18.375C45.4919 18.375 47.2506 20.1337 47.2506 22.3125ZM35.4381 14.4375C35.4381 16.6163 33.6794 18.375 31.5006 18.375C29.3219 18.375 27.5631 16.6163 27.5631 14.4375C27.5631 12.2588 29.3219 10.5 31.5006 10.5C33.6794 10.5 35.4381 12.2588 35.4381 14.4375ZM35.4381 28.875C35.4381 31.0537 33.6794 32.8125 31.5006 32.8125C29.3219 32.8125 27.5631 31.0537 27.5631 28.875C27.5631 26.6963 29.3219 24.9375 31.5006 24.9375C33.6794 24.9375 35.4381 26.6963 35.4381 28.875Z" fill="#00467B"/>
</svg>
