<svg width="80" height="70" viewBox="0 0 80 70" fill="none" xmlns="http://www.w3.org/2000/svg">
<path d="M79.2 43.4H73.6V32.2H79.2C79.4122 32.2 79.6157 32.1157 79.7657 31.9657C79.9157 31.8157 80 31.6122 80 31.4C80 31.1878 79.9157 30.9843 79.7657 30.8343C79.6157 30.6843 79.4122 30.6 79.2 30.6H73.46C73.2947 30.1325 72.9887 29.7277 72.584 29.4412C72.1793 29.1547 71.6958 29.0006 71.2 29H68C67.5042 29.0006 67.0207 29.1547 66.616 29.4412C66.2113 29.7277 65.9053 30.1325 65.74 30.6H61.6C56.2975 30.6058 51.2138 32.7148 47.4643 36.4643C43.7148 40.2138 41.6058 45.2975 41.6 50.6V54.74C41.1325 54.9053 40.7277 55.2113 40.4412 55.616C40.1547 56.0207 40.0006 56.5042 40 57V60.2C40.0006 60.6958 40.1547 61.1793 40.4412 61.584C40.7277 61.9887 41.1325 62.2947 41.6 62.46V68.2C41.6 68.4122 41.6843 68.6157 41.8343 68.7657C41.9843 68.9157 42.1878 69 42.4 69C42.6122 69 42.8157 68.9157 42.9657 68.7657C43.1157 68.6157 43.2 68.4122 43.2 68.2V62.6H54.4V68.2C54.4 68.4122 54.4843 68.6157 54.6343 68.7657C54.7843 68.9157 54.9878 69 55.2 69C55.4122 69 55.6157 68.9157 55.7657 68.7657C55.9157 68.6157 56 68.4122 56 68.2V62.46C56.4675 62.2947 56.8723 61.9887 57.1588 61.584C57.4453 61.1793 57.5994 60.6958 57.6 60.2V57C57.5994 56.5042 57.4453 56.0207 57.1588 55.616C56.8723 55.2113 56.4675 54.9053 56 54.74V50.6C56 49.1148 56.59 47.6904 57.6402 46.6402C58.6904 45.59 60.1148 45 61.6 45H65.74C65.9053 45.4675 66.2113 45.8723 66.616 46.1588C67.0207 46.4453 67.5042 46.5994 68 46.6H71.2C71.6958 46.5994 72.1793 46.4453 72.584 46.1588C72.9887 45.8723 73.2947 45.4675 73.46 45H79.2C79.4122 45 79.6157 44.9157 79.7657 44.7657C79.9157 44.6157 80 44.4122 80 44.2C80 43.9878 79.9157 43.7843 79.7657 43.6343C79.6157 43.4843 79.4122 43.4 79.2 43.4ZM56 60.2C56 60.4122 55.9157 60.6157 55.7657 60.7657C55.6157 60.9157 55.4122 61 55.2 61H42.4C42.1878 61 41.9843 60.9157 41.8343 60.7657C41.6843 60.6157 41.6 60.4122 41.6 60.2V57C41.6 56.7878 41.6843 56.5843 41.8343 56.4343C41.9843 56.2843 42.1878 56.2 42.4 56.2H55.2C55.4122 56.2 55.6157 56.2843 55.7657 56.4343C55.9157 56.5843 56 56.7878 56 57V60.2ZM54.4 50.6V54.6H43.2V50.6C43.2053 45.7216 45.1456 41.0446 48.5951 37.5951C52.0446 34.1456 56.7216 32.2053 61.6 32.2H65.6V43.4H61.6C59.6904 43.4 57.8591 44.1586 56.5088 45.5088C55.1586 46.8591 54.4 48.6904 54.4 50.6ZM71.2 45H68C67.7878 45 67.5843 44.9157 67.4343 44.7657C67.2843 44.6157 67.2 44.4122 67.2 44.2V31.4C67.2 31.1878 67.2843 30.9843 67.4343 30.8343C67.5843 30.6843 67.7878 30.6 68 30.6H71.2C71.4122 30.6 71.6157 30.6843 71.7657 30.8343C71.9157 30.9843 72 31.1878 72 31.4V44.2C72 44.4122 71.9157 44.6157 71.7657 44.7657C71.6157 44.9157 71.4122 45 71.2 45Z" fill="#00467B"/>
<path d="M0.799999 14.4H6.4V3.2H0.799999C0.587826 3.2 0.384342 3.11571 0.234314 2.96569C0.0842857 2.81566 0 2.61217 0 2.4C0 2.18783 0.0842857 1.98434 0.234314 1.83431C0.384342 1.68429 0.587826 1.6 0.799999 1.6H6.54C6.70528 1.13252 7.0113 0.727703 7.41598 0.441199C7.82067 0.154695 8.30416 0.000566549 8.8 0H12C12.4958 0.000566549 12.9793 0.154695 13.384 0.441199C13.7887 0.727703 14.0947 1.13252 14.26 1.6H18.4C23.7025 1.60582 28.7862 3.71483 32.5357 7.4643C36.2852 11.2138 38.3942 16.2975 38.4 21.6V25.74C38.8675 25.9053 39.2723 26.2113 39.5588 26.616C39.8453 27.0207 39.9994 27.5042 40 28V31.2C39.9994 31.6958 39.8453 32.1793 39.5588 32.584C39.2723 32.9887 38.8675 33.2947 38.4 33.46L38.6122 68.7C38.6122 68.9122 38.5279 69.1157 38.3779 69.2657C38.2278 69.4157 38.0243 69.5 37.8122 69.5C37.6 69.5 37.3965 69.4157 37.2465 69.2657C37.0965 69.1157 37.0122 68.9122 37.0122 68.7L36.8 33.6H25.6L25.8122 68.7C25.8122 68.9122 25.7279 69.1157 25.5779 69.2657C25.4278 69.4157 25.2243 69.5 25.0122 69.5C24.8 69.5 24.5965 69.4157 24.4465 69.2657C24.2965 69.1157 24.2122 68.9122 24.2122 68.7L24 33.46C23.5325 33.2947 23.1277 32.9887 22.8412 32.584C22.5547 32.1793 22.4006 31.6958 22.4 31.2V28C22.4006 27.5042 22.5547 27.0207 22.8412 26.616C23.1277 26.2113 23.5325 25.9053 24 25.74V21.6C24 20.1148 23.41 18.6904 22.3598 17.6402C21.3096 16.59 19.8852 16 18.4 16H14.26C14.0947 16.4675 13.7887 16.8723 13.384 17.1588C12.9793 17.4453 12.4958 17.5994 12 17.6H8.8C8.30416 17.5994 7.82067 17.4453 7.41598 17.1588C7.0113 16.8723 6.70528 16.4675 6.54 16H0.799999C0.587826 16 0.384342 15.9157 0.234314 15.7657C0.0842857 15.6157 0 15.4122 0 15.2C0 14.9878 0.0842857 14.7843 0.234314 14.6343C0.384342 14.4843 0.587826 14.4 0.799999 14.4ZM24 31.2C24 31.4122 24.0843 31.6157 24.2343 31.7657C24.3843 31.9157 24.5878 32 24.8 32H37.6C37.8122 32 38.0157 31.9157 38.1657 31.7657C38.3157 31.6157 38.4 31.4122 38.4 31.2V28C38.4 27.7878 38.3157 27.5843 38.1657 27.4343C38.0157 27.2843 37.8122 27.2 37.6 27.2H24.8C24.5878 27.2 24.3843 27.2843 24.2343 27.4343C24.0843 27.5843 24 27.7878 24 28V31.2ZM25.6 21.6V25.6H36.8V21.6C36.7947 16.7216 34.8544 12.0446 31.4049 8.59508C27.9554 5.14556 23.2784 3.20529 18.4 3.2H14.4V14.4H18.4C20.3096 14.4 22.1409 15.1586 23.4912 16.5088C24.8414 17.8591 25.6 19.6904 25.6 21.6ZM8.8 16H12C12.2122 16 12.4157 15.9157 12.5657 15.7657C12.7157 15.6157 12.8 15.4122 12.8 15.2V2.4C12.8 2.18783 12.7157 1.98434 12.5657 1.83431C12.4157 1.68429 12.2122 1.6 12 1.6H8.8C8.58783 1.6 8.38434 1.68429 8.23431 1.83431C8.08429 1.98434 8 2.18783 8 2.4V15.2C8 15.4122 8.08429 15.6157 8.23431 15.7657C8.38434 15.9157 8.58783 16 8.8 16Z" fill="#00467B"/>
</svg>
