<svg width="48" height="48" viewBox="0 0 48 48" fill="none" xmlns="http://www.w3.org/2000/svg">
<path d="M34.8502 5.19995C34.5386 5.19995 34.2397 5.32375 34.0194 5.5441C33.799 5.76446 33.6752 6.06332 33.6752 6.37495C33.6752 6.68658 33.799 6.98545 34.0194 7.2058C34.2397 7.42616 34.5386 7.54995 34.8502 7.54995H39.0638L27.8002 18.8135L21.5821 12.5931C21.473 12.4836 21.3433 12.3968 21.2006 12.3376C21.0578 12.2783 20.9048 12.2479 20.7502 12.2479C20.5957 12.2479 20.4426 12.2783 20.2999 12.3376C20.1571 12.3968 20.0275 12.4836 19.9183 12.5931L8.16831 24.3431C7.94768 24.5637 7.82373 24.8629 7.82373 25.175C7.82373 25.487 7.94768 25.7862 8.16831 26.0069C8.38895 26.2275 8.68819 26.3514 9.00021 26.3514C9.31224 26.3514 9.61148 26.2275 9.83211 26.0069L20.7502 15.0864L26.9683 21.3069C27.0775 21.4163 27.2071 21.5031 27.3499 21.5623C27.4926 21.6216 27.6457 21.6521 27.8002 21.6521C27.9548 21.6521 28.1078 21.6216 28.2506 21.5623C28.3933 21.5031 28.523 21.4163 28.6321 21.3069L40.7252 9.2114V13.425C40.7252 13.7366 40.849 14.0354 41.0694 14.2558C41.2897 14.4762 41.5886 14.6 41.9002 14.6C42.2118 14.6 42.5107 14.4762 42.7311 14.2558C42.9514 14.0354 43.0752 13.7366 43.0752 13.425V6.37495C43.0752 6.06332 42.9514 5.76446 42.7311 5.5441C42.5107 5.32375 42.2118 5.19995 41.9002 5.19995H34.8502ZM37.2002 21.65C36.8886 21.65 36.5897 21.7737 36.3694 21.9941C36.149 22.2145 36.0252 22.5133 36.0252 22.825V41.625C36.0252 41.9366 36.149 42.2355 36.3694 42.4558C36.5897 42.6762 36.8886 42.8 37.2002 42.8C37.5118 42.8 37.8107 42.6762 38.0311 42.4558C38.2514 42.2355 38.3752 41.9366 38.3752 41.625V22.825C38.3752 22.5133 38.2514 22.2145 38.0311 21.9941C37.8107 21.7737 37.5118 21.65 37.2002 21.65ZM18.4002 26.35C18.0886 26.35 17.7897 26.4737 17.5694 26.6941C17.349 26.9145 17.2252 27.2133 17.2252 27.525V41.625C17.2252 41.9366 17.349 42.2355 17.5694 42.4558C17.7897 42.6762 18.0886 42.8 18.4002 42.8C18.7118 42.8 19.0107 42.6762 19.2311 42.4558C19.4514 42.2355 19.5752 41.9366 19.5752 41.625V27.525C19.5752 27.2133 19.4514 26.9145 19.2311 26.6941C19.0107 26.4737 18.7118 26.35 18.4002 26.35ZM26.6252 32.225C26.6252 31.9133 26.749 31.6145 26.9694 31.3941C27.1897 31.1737 27.4886 31.05 27.8002 31.05C28.1118 31.05 28.4107 31.1737 28.6311 31.3941C28.8514 31.6145 28.9752 31.9133 28.9752 32.225V41.625C28.9752 41.9366 28.8514 42.2355 28.6311 42.4558C28.4107 42.6762 28.1118 42.8 27.8002 42.8C27.4886 42.8 27.1897 42.6762 26.9694 42.4558C26.749 42.2355 26.6252 41.9366 26.6252 41.625V32.225ZM7.82521 34.575C7.82521 34.2633 7.94901 33.9645 8.16936 33.7441C8.38972 33.5237 8.68859 33.4 9.00021 33.4C9.31184 33.4 9.61071 33.5237 9.83106 33.7441C10.0514 33.9645 10.1752 34.2633 10.1752 34.575V41.625C10.1752 41.9366 10.0514 42.2355 9.83106 42.4558C9.61071 42.6762 9.31184 42.8 9.00021 42.8C8.68859 42.8 8.38972 42.6762 8.16936 42.4558C7.94901 42.2355 7.82521 41.9366 7.82521 41.625V34.575Z" fill="white"/>
</svg>
