<svg width="39" height="38" viewBox="0 0 39 38" fill="none" xmlns="http://www.w3.org/2000/svg">
<path d="M33.725 22.875H38.475V37.5H19.475V22.875H24.225V18H33.725V22.875ZM26.6 22.875H31.35V20.4375H26.6V22.875ZM36.1 30.1875H33.725V32.625H31.35V30.1875H26.6V32.625H24.225V30.1875H21.85V35.0625H36.1V30.1875ZM21.85 25.3125V27.75H36.1V25.3125H21.85ZM17.1 15.5625C17.1 16.7432 16.8464 17.8477 16.3392 18.876C15.8321 19.9043 15.1084 20.7676 14.1683 21.4658C14.725 21.7578 15.2507 22.0942 15.7455 22.4751C16.2403 22.856 16.6918 23.2812 17.1 23.751V30.1875C17.1 29.1846 16.9144 28.2388 16.5433 27.3501C16.1722 26.4614 15.6651 25.687 15.0219 25.0269C14.3786 24.3667 13.6179 23.8398 12.7396 23.4463C11.8614 23.0527 10.9398 22.8623 9.97498 22.875C8.98539 22.875 8.06384 23.0654 7.21033 23.4463C6.35681 23.8271 5.60225 24.3477 4.94666 25.0078C4.29106 25.668 3.77771 26.4487 3.40662 27.3501C3.03552 28.2515 2.84998 29.1973 2.84998 30.1875H0.474976C0.474976 29.2607 0.598674 28.3657 0.846069 27.5024C1.09347 26.6392 1.446 25.8203 1.90369 25.0459C2.36137 24.2715 2.92419 23.5859 3.59216 22.9893C4.26013 22.3926 4.98995 21.8784 5.78162 21.4468C4.85388 20.7612 4.13643 19.9043 3.62927 18.876C3.12211 17.8477 2.86235 16.7432 2.84998 15.5625C2.84998 14.5596 3.03552 13.6138 3.40662 12.7251C3.77771 11.8364 4.28487 11.062 4.9281 10.4019C5.57133 9.7417 6.32589 9.21484 7.19177 8.82129C8.05766 8.42773 8.98539 8.2373 9.97498 8.25C10.8656 8.25 11.7129 8.40869 12.517 8.72607C13.321 9.04346 14.057 9.51318 14.725 10.1353C15.1208 9.76709 15.5599 9.44336 16.0424 9.16406C15.6218 8.71973 15.3002 8.20557 15.0775 7.62158C14.8549 7.0376 14.7373 6.43457 14.725 5.8125C14.725 5.13965 14.8487 4.51123 15.0961 3.92725C15.3435 3.34326 15.6836 2.82275 16.1166 2.36572C16.5495 1.90869 17.0505 1.55957 17.6195 1.31836C18.1885 1.07715 18.807 0.950195 19.475 0.9375C20.1306 0.9375 20.7429 1.06445 21.3119 1.31836C21.8809 1.57227 22.3881 1.92139 22.8334 2.36572C23.2787 2.81006 23.6189 3.32422 23.8539 3.9082C24.0889 4.49219 24.2126 5.12695 24.225 5.8125C24.225 6.43457 24.1136 7.0376 23.891 7.62158C23.6683 8.20557 23.3405 8.71973 22.9076 9.16406C23.9343 9.74805 24.7692 10.5352 25.4125 11.5254C26.0557 10.5352 26.8907 9.74805 27.9174 9.16406C27.4968 8.71973 27.1752 8.20557 26.9525 7.62158C26.7299 7.0376 26.6123 6.43457 26.6 5.8125C26.6 5.13965 26.7237 4.51123 26.9711 3.92725C27.2185 3.34326 27.5586 2.82275 27.9916 2.36572C28.4245 1.90869 28.9255 1.55957 29.4945 1.31836C30.0635 1.07715 30.682 0.950195 31.35 0.9375C32.0056 0.9375 32.6179 1.06445 33.1869 1.31836C33.7559 1.57227 34.2631 1.92139 34.7084 2.36572C35.1537 2.81006 35.4939 3.32422 35.7289 3.9082C35.9639 4.49219 36.0876 5.12695 36.1 5.8125C36.1 6.43457 35.9886 7.0376 35.766 7.62158C35.5433 8.20557 35.2155 8.71973 34.7826 9.16406C35.3516 9.48145 35.8649 9.86865 36.3226 10.3257C36.7803 10.7827 37.1638 11.2842 37.473 11.8301C37.7823 12.376 38.0297 12.9727 38.2152 13.6201C38.4008 14.2676 38.4873 14.915 38.475 15.5625H36.1C36.1 14.8896 35.9763 14.2612 35.7289 13.6772C35.4815 13.0933 35.1413 12.5728 34.7084 12.1157C34.2754 11.6587 33.7745 11.3096 33.2054 11.0684C32.6364 10.8271 32.0179 10.7002 31.35 10.6875C30.6944 10.6875 30.0821 10.8145 29.5131 11.0684C28.9441 11.3223 28.4369 11.6714 27.9916 12.1157C27.5463 12.5601 27.2061 13.0742 26.9711 13.6582C26.736 14.2422 26.6123 14.877 26.6 15.5625H24.225C24.225 14.8896 24.1013 14.2612 23.8539 13.6772C23.6065 13.0933 23.2663 12.5728 22.8334 12.1157C22.4004 11.6587 21.8995 11.3096 21.3304 11.0684C20.7614 10.8271 20.1429 10.7002 19.475 10.6875C18.8689 10.6875 18.2813 10.8018 17.7123 11.0303C17.1433 11.2588 16.6423 11.5952 16.2094 12.0396C16.5062 12.5728 16.7289 13.1377 16.8773 13.7344C17.0258 14.3311 17.1 14.9404 17.1 15.5625ZM31.35 3.375C31.016 3.375 30.7067 3.43848 30.4222 3.56543C30.1377 3.69238 29.8903 3.86377 29.6801 4.07959C29.4698 4.29541 29.2966 4.55566 29.1605 4.86035C29.0245 5.16504 28.9626 5.48242 28.975 5.8125C28.975 6.15527 29.0368 6.47266 29.1605 6.76465C29.2842 7.05664 29.4512 7.31055 29.6615 7.52637C29.8718 7.74219 30.1254 7.91992 30.4222 8.05957C30.7191 8.19922 31.0284 8.2627 31.35 8.25C31.684 8.25 31.9932 8.18652 32.2777 8.05957C32.5622 7.93262 32.8096 7.76123 33.0199 7.54541C33.2302 7.32959 33.4034 7.06934 33.5394 6.76465C33.6755 6.45996 33.7373 6.14258 33.725 5.8125C33.725 5.46973 33.6631 5.15234 33.5394 4.86035C33.4157 4.56836 33.2487 4.31445 33.0385 4.09863C32.8282 3.88281 32.5746 3.70508 32.2777 3.56543C31.9808 3.42578 31.6716 3.3623 31.35 3.375ZM19.475 3.375C19.141 3.375 18.8317 3.43848 18.5472 3.56543C18.2627 3.69238 18.0153 3.86377 17.8051 4.07959C17.5948 4.29541 17.4216 4.55566 17.2855 4.86035C17.1495 5.16504 17.0876 5.48242 17.1 5.8125C17.1 6.15527 17.1618 6.47266 17.2855 6.76465C17.4092 7.05664 17.5762 7.31055 17.7865 7.52637C17.9968 7.74219 18.2504 7.91992 18.5472 8.05957C18.8441 8.19922 19.1534 8.2627 19.475 8.25C19.809 8.25 20.1182 8.18652 20.4027 8.05957C20.6872 7.93262 20.9346 7.76123 21.1449 7.54541C21.3552 7.32959 21.5284 7.06934 21.6644 6.76465C21.8005 6.45996 21.8623 6.14258 21.85 5.8125C21.85 5.46973 21.7881 5.15234 21.6644 4.86035C21.5407 4.56836 21.3737 4.31445 21.1635 4.09863C20.9532 3.88281 20.6996 3.70508 20.4027 3.56543C20.1058 3.42578 19.7966 3.3623 19.475 3.375ZM9.97498 20.4375C10.6306 20.4375 11.2429 20.3105 11.8119 20.0566C12.3809 19.8027 12.8881 19.4536 13.3334 19.0093C13.7787 18.5649 14.1189 18.0508 14.3539 17.4668C14.5889 16.8828 14.7126 16.248 14.725 15.5625C14.725 14.8896 14.6013 14.2612 14.3539 13.6772C14.1065 13.0933 13.7663 12.5728 13.3334 12.1157C12.9004 11.6587 12.3995 11.3096 11.8304 11.0684C11.2614 10.8271 10.6429 10.7002 9.97498 10.6875C9.31938 10.6875 8.70707 10.8145 8.13806 11.0684C7.56905 11.3223 7.06189 11.6714 6.61658 12.1157C6.17126 12.5601 5.8311 13.0742 5.59607 13.6582C5.36104 14.2422 5.23735 14.877 5.22498 15.5625C5.22498 16.2354 5.34867 16.8638 5.59607 17.4478C5.84347 18.0317 6.18363 18.5522 6.61658 19.0093C7.04952 19.4663 7.5505 19.8154 8.11951 20.0566C8.68852 20.2979 9.30701 20.4248 9.97498 20.4375Z" fill="white"/>
</svg>
