<svg width="46" height="46" viewBox="0 0 46 46" fill="none" xmlns="http://www.w3.org/2000/svg">
<path d="M22.6431 40.7413C21.4206 40.7413 20.3806 40.31 19.5231 39.4475C18.6656 38.585 18.2374 37.5375 18.2387 36.305C18.2387 35.255 18.5724 34.3238 19.2399 33.5113C19.9074 32.6988 20.7399 32.1888 21.7374 31.9813V27.335C21.2499 27.2575 20.8018 27.0969 20.3931 26.8531C19.9843 26.6094 19.6306 26.3025 19.3318 25.9325L15.4056 28.28C15.4856 28.4963 15.5449 28.7231 15.5837 28.9606C15.6237 29.1981 15.6437 29.435 15.6437 29.6713C15.6437 30.9025 15.2049 31.9494 14.3274 32.8119C13.4499 33.6744 12.3999 34.1056 11.1774 34.1056C9.95495 34.1056 8.91495 33.675 8.05745 32.8138C7.19995 31.9525 6.77182 30.9069 6.77307 29.6769C6.77432 28.4469 7.20182 27.3994 8.05557 26.5344C8.90932 25.6694 9.94807 25.2363 11.1718 25.235C11.8293 25.235 12.4437 25.3644 13.0149 25.6231C13.5862 25.8819 14.0737 26.23 14.4774 26.6675L18.3962 24.3313C18.3399 24.1263 18.2918 23.9094 18.2518 23.6806C18.2118 23.4519 18.1918 23.2219 18.1918 22.9906C18.1918 22.7619 18.2118 22.5369 18.2518 22.3156C18.2918 22.0944 18.3512 21.8706 18.4299 21.6444L14.5149 19.37C14.1112 19.8313 13.6199 20.1913 13.0412 20.45C12.4612 20.7075 11.8381 20.8363 11.1718 20.8363C9.95057 20.8363 8.91182 20.4056 8.05557 19.5444C7.19932 18.6831 6.77245 17.6375 6.77495 16.4075C6.77745 15.1775 7.20557 14.13 8.05932 13.265C8.91307 12.4 9.95307 11.9675 11.1793 11.9675C12.4056 11.9675 13.4556 12.3988 14.3293 13.2613C15.2031 14.1238 15.6418 15.1706 15.6456 16.4019C15.6456 16.6369 15.6318 16.8725 15.6043 17.1088C15.5768 17.3438 15.5231 17.5638 15.4431 17.7688L19.3693 20.0319C19.6681 19.6869 20.0156 19.3938 20.4118 19.1525C20.8081 18.9113 21.2506 18.7525 21.7393 18.6763V13.9925C20.7418 13.7863 19.9093 13.275 19.2418 12.4588C18.5756 11.6425 18.2424 10.7094 18.2424 9.65939C18.2424 8.42689 18.6706 7.37939 19.5268 6.51689C20.3831 5.65439 21.4225 5.22314 22.6449 5.22314C23.8675 5.22314 24.9174 5.65439 25.7949 6.51689C26.6724 7.37939 27.1118 8.42689 27.1131 9.65939C27.1131 10.7094 26.7793 11.6425 26.1118 12.4588C25.4443 13.275 24.6118 13.7863 23.6143 13.9925V18.7138C24.0781 18.8138 24.5068 18.98 24.9006 19.2125C25.2931 19.445 25.6387 19.7338 25.9374 20.0788L29.9462 17.7931C29.8675 17.5769 29.8081 17.35 29.7681 17.1125C29.7281 16.875 29.7081 16.6375 29.7081 16.4C29.7081 15.1688 30.1362 14.1219 30.9925 13.2594C31.8487 12.3969 32.8887 11.9656 34.1124 11.9656C35.3362 11.9656 36.3862 12.3969 37.2624 13.2594C38.1387 14.1219 38.5774 15.1669 38.5787 16.3944C38.5799 17.6219 38.1412 18.67 37.2624 19.5388C36.3837 20.4075 35.3318 20.84 34.1068 20.8363C33.4593 20.8363 32.8612 20.7075 32.3124 20.45C31.7637 20.1913 31.2875 19.8431 30.8837 19.4056L26.8637 21.6913C26.9424 21.8963 26.9956 22.1088 27.0231 22.3288C27.0518 22.5475 27.0662 22.7713 27.0662 23C27.0662 23.2288 27.0462 23.4488 27.0062 23.66C26.9662 23.8713 26.9187 24.0794 26.8637 24.2844L30.8837 26.6656C31.2875 26.2281 31.7637 25.8806 32.3124 25.6231C32.8624 25.3644 33.4606 25.235 34.1068 25.235C35.3331 25.235 36.3849 25.6663 37.2624 26.5288C38.1399 27.3888 38.5787 28.4338 38.5787 29.6638C38.5787 30.895 38.1399 31.9431 37.2624 32.8081C36.3849 33.6731 35.335 34.1056 34.1124 34.1056C32.8899 34.1056 31.85 33.6744 30.9925 32.8119C30.135 31.9494 29.7068 30.9025 29.7081 29.6713C29.7081 29.4238 29.7281 29.1869 29.7681 28.9606C29.8081 28.7344 29.8675 28.5075 29.9462 28.28L25.9712 25.9325C25.6737 26.3025 25.3287 26.6013 24.9362 26.8288C24.5437 27.0575 24.1031 27.2225 23.6143 27.3238V31.9831C24.6118 32.1894 25.4443 32.6988 26.1118 33.5113C26.7793 34.3238 27.1124 35.255 27.1112 36.305C27.1112 37.5375 26.6724 38.585 25.7949 39.4475C24.9174 40.31 23.8675 40.7413 22.6449 40.7413M22.6581 38.8663C23.3706 38.8663 23.9781 38.6206 24.4806 38.1294C24.9831 37.6381 25.235 37.0306 25.2362 36.3069C25.2362 35.5819 24.9874 34.9738 24.49 34.4825C23.9925 33.9913 23.3762 33.7456 22.6412 33.7456C21.9412 33.7456 21.3456 33.9975 20.8543 34.5013C20.3631 35.0038 20.1174 35.605 20.1174 36.305C20.1174 37.005 20.3631 37.6069 20.8543 38.1106C21.3456 38.6144 21.9474 38.8656 22.6599 38.8644M11.1924 32.2306C11.9049 32.2306 12.5124 31.9856 13.0149 31.4956C13.5187 31.0056 13.7706 30.3981 13.7706 29.6731C13.7706 28.9481 13.5218 28.34 13.0243 27.8488C12.5268 27.3575 11.9106 27.1113 11.1756 27.11C10.4756 27.11 9.87995 27.3619 9.3887 27.8656C8.8962 28.3694 8.64995 28.9713 8.64995 29.6713C8.64995 30.3713 8.89557 30.9725 9.38682 31.475C9.87932 31.9788 10.4812 32.2306 11.1924 32.2306ZM34.1237 32.2306C34.8362 32.2306 35.4443 31.9856 35.9481 31.4956C36.4518 31.0056 36.7037 30.3981 36.7037 29.6731C36.7037 28.9481 36.4549 28.34 35.9574 27.8488C35.4599 27.3575 34.8431 27.1113 34.1068 27.11C33.4068 27.11 32.8112 27.3619 32.3199 27.8656C31.8287 28.3694 31.5831 28.9713 31.5831 29.6713C31.5831 30.3713 31.8287 30.9725 32.3199 31.475C32.8112 31.9775 33.4112 32.2294 34.1237 32.2306ZM22.6581 25.5594C23.3706 25.5594 23.9781 25.3144 24.4806 24.8244C24.9843 24.3344 25.2362 23.7269 25.2362 23.0019C25.2362 22.2769 24.9874 21.6688 24.49 21.1775C23.9925 20.6863 23.3762 20.44 22.6412 20.4388C21.9412 20.4388 21.3456 20.6906 20.8543 21.1944C20.3618 21.6981 20.1156 22.3 20.1156 23C20.1156 23.7 20.3618 24.3013 20.8543 24.8038C21.3468 25.3063 21.9481 25.5581 22.6581 25.5594ZM11.1906 18.9613C11.9031 18.9613 12.5106 18.7163 13.0131 18.2263C13.5168 17.7363 13.7687 17.1288 13.7687 16.4038C13.7687 15.6788 13.5199 15.0706 13.0224 14.5794C12.5249 14.0869 11.9087 13.8406 11.1737 13.8406C10.4737 13.8406 9.87807 14.0925 9.38682 14.5963C8.89432 15.1 8.64807 15.7019 8.64807 16.4019C8.64807 17.1019 8.8937 17.7031 9.38495 18.2056C9.87745 18.7094 10.4793 18.9613 11.1906 18.9613ZM34.1218 18.9613C34.8343 18.9613 35.4424 18.7163 35.9462 18.2263C36.4499 17.7363 36.7018 17.1288 36.7018 16.4038C36.7018 15.6788 36.4531 15.0706 35.9556 14.5794C35.4581 14.0869 34.8412 13.8406 34.105 13.8406C33.405 13.8406 32.8093 14.0925 32.3181 14.5963C31.8268 15.1 31.5812 15.7019 31.5812 16.4019C31.5812 17.1019 31.8268 17.7031 32.3181 18.2056C32.8093 18.7081 33.4112 18.96 34.1237 18.9613M22.6562 12.2188C23.3687 12.2188 23.9768 11.9738 24.4806 11.4838C24.9843 10.9938 25.2362 10.3863 25.2362 9.66127C25.2362 8.93627 24.9868 8.32814 24.4881 7.83689C23.9906 7.34439 23.3743 7.09814 22.6393 7.09814C21.9393 7.09814 21.3437 7.35002 20.8524 7.85377C20.3612 8.35752 20.1156 8.95939 20.1156 9.65939C20.1156 10.3594 20.3612 10.9606 20.8524 11.4631C21.3437 11.9656 21.9456 12.2175 22.6581 12.2188" fill="white"/>
</svg>
