<svg width="43" height="44" viewBox="0 0 43 44" fill="none" xmlns="http://www.w3.org/2000/svg">
<path d="M19.2448 24.6956H38.7223C38.2635 27.7012 37.0458 30.5321 35.19 32.908C33.3342 35.2838 30.9045 37.1223 28.1415 38.2415C25.3785 39.3606 22.3778 39.7216 19.4367 39.2888C16.4955 38.8559 13.7157 37.6441 11.3725 35.7734L19.2448 24.6956ZM19.2448 24.6956V4.75431C15.9574 5.27825 12.8913 6.77507 10.4243 9.06046C7.95718 11.3458 6.19678 14.32 5.35982 17.6168C4.52286 20.9135 4.64588 24.3889 5.71373 27.6149C6.78159 30.841 8.74766 33.6769 11.3698 35.7734M24.5001 19.3125V4.53125C28.3292 4.53125 32.0014 6.08856 34.709 8.86058C37.4165 11.6326 38.9376 15.3923 38.9376 19.3125H24.5001Z" stroke="white" stroke-width="2"/>
</svg>
