<svg width="148" height="40" viewBox="0 0 148 40" fill="none" xmlns="http://www.w3.org/2000/svg">
<g clip-path="url(#clip0_812_2605)">
<path fill-rule="evenodd" clip-rule="evenodd" d="M21.0791 25.0744C22.1451 24.907 23.2071 24.3857 24.894 25.0646C25.9842 25.5034 26.6997 26.0981 27.4582 26.9291C28.0184 27.543 28.6824 28.7986 28.9482 29.862C29.3682 31.5405 29.167 32.2072 29.0184 33.8598C28.9056 35.1156 29.2303 36.5788 29.7585 37.5103C31.6667 40.8769 36.7888 40.5393 38.7427 38.2217C39.5822 37.2256 39.7618 36.4672 39.7835 34.8237C39.8013 33.4809 39.5864 32.1641 39.1671 31.0022C37.5764 26.595 33.2479 24.3108 28.5668 23.836C27.2055 23.698 25.7419 23.6926 24.396 23.8949C23.4961 24.0302 21.4813 24.5436 21.0793 25.0743L21.0791 25.0744ZM35.7694 38.2229C36.2608 38.1183 37.2367 37.3317 37.6228 36.8402C38.8148 35.3223 38.7171 33.5718 37.6292 32.0469C37.2914 31.5736 36.4739 30.8026 35.8868 30.5401C36.6098 31.6799 37.5127 32.6014 37.4098 34.394C37.3037 36.2413 36.2119 37.228 35.7694 38.2229Z" fill="#3C87C5"/>
<path fill-rule="evenodd" clip-rule="evenodd" d="M24.8828 5.15634C24.5772 5.80759 24.5418 7.30728 23.5335 8.97968C23.2015 9.5303 22.7777 9.90141 22.4948 10.5282C22.2407 11.0915 21.9625 11.8772 21.9139 12.5898C21.6314 16.7267 26.3511 20.1106 30.8228 18.5481C32.32 18.025 33.1482 17.3591 33.8374 16.3233C34.5321 15.2788 35.0456 14.0591 35.3663 12.6214C35.6294 11.4419 35.8849 10.1343 34.9494 9.08122C34.842 8.96034 34.7468 8.80063 34.6029 8.78733C34.4596 9.77116 34.5323 10.8091 33.2647 11.232C32.2002 11.5873 31.515 10.7591 32.0268 9.08394C33.2141 5.19805 31.4596 5.21225 31.3568 2.9983C31.3018 1.81456 32.3074 1.1621 32.8733 0.717711C33.1327 0.514026 33.3025 0.404476 33.6251 0.214541C33.0011 -0.141456 32.0344 0.000277716 31.4266 0.247934C30.8258 0.49272 30.2513 1.03654 29.9238 1.44376C28.8548 2.77316 28.7218 3.40507 28.5132 5.47532C28.3896 6.70106 28.4941 9.05312 26.4492 8.83689C25.5618 8.74306 25.5247 7.87331 25.6221 7.00357C25.7356 5.98876 25.7411 5.4593 24.8827 5.15664L24.8828 5.15634Z" fill="#F47521"/>
<path fill-rule="evenodd" clip-rule="evenodd" d="M0 3.02279L1.17834 4.18386C1.72933 4.69352 2.52248 5.76272 2.90509 6.50615C3.08865 6.86275 3.23502 7.2056 3.39793 7.5755C3.98414 8.90777 3.76217 11.9093 5.81019 14.0063C5.96642 14.1663 6.05675 14.2533 6.22149 14.4073C7.14932 15.2745 8.36091 15.8033 9.67666 15.7729C10.7545 15.7482 11.5214 15.429 12.4958 15.294C12.8396 17.3266 14.4256 18.6317 16.1429 19.2873C16.5566 19.4452 16.4932 19.363 16.9549 19.0158C17.2134 18.8213 17.4705 18.6643 17.6799 18.4488C16.4121 18.0667 15.021 17.9878 14.2294 16.8305C13.9332 16.3976 13.6286 15.666 13.3849 15.1371C12.5332 13.289 13.1078 11.8736 10.9142 8.76664C10.5249 8.21511 9.90729 7.54392 9.40428 7.09076C9.18473 6.89312 9.17198 6.93528 9.06585 6.75214C9.46319 6.86169 9.76609 7.116 10.041 7.31998C10.3704 7.56416 10.6071 7.69487 10.9002 7.97048C12.6193 9.58606 13.3005 11.5774 13.7786 13.8328C13.8296 14.0732 13.8219 14.052 13.9107 14.1355C14.7528 12.7214 14.4328 13.3573 15.1434 11.8319C15.9999 9.99359 15.5782 7.72811 14.4142 6.1985C11.5109 2.38377 4.284 2.71862 0.000303658 3.02279H0Z" fill="#32A25C"/>
<path fill-rule="evenodd" clip-rule="evenodd" d="M8.3765 31.2524C8.01211 30.5856 7.6005 29.7032 6.58872 29.6779C5.33628 29.6465 5.09745 30.4653 4.53159 31.0519C3.75088 30.7506 3.22905 30.4591 2.28862 30.9186C1.14231 31.4788 1.03148 32.7086 1.46024 33.899C1.70772 34.5862 1.6104 34.3623 1.30781 34.897C0.204467 36.8453 2.46626 38.936 4.73883 39.5753C7.06607 40.2303 9.53921 39.2101 10.9 37.4955C11.1607 37.1672 11.2456 36.975 11.4509 36.5903C12.4514 34.7157 12.3737 32.4757 12.354 30.3005C12.3356 28.282 12.1971 27.4969 13.2596 26.1648C13.8208 25.4611 14.3531 24.9469 15.6275 24.9147C16.6076 24.89 17.3599 25.1894 18.2542 25.2596L18.0696 25.1217C16.0039 23.9241 13.2891 23.6394 11.3452 25.1749C9.93685 26.2875 9.26698 27.6235 8.78492 29.4084C8.69914 29.7261 8.5221 31.1072 8.3765 31.2523V31.2524ZM4.8603 31.8461C2.40052 30.5796 1.41196 32.7556 1.97494 34.0333C2.09732 34.3112 2.22728 34.383 2.33098 34.6084C2.0917 34.9369 1.38281 35.1557 1.78075 36.1084L1.94974 36.3512C1.95839 35.9243 2.00728 35.6781 2.14575 35.2988C2.31291 34.8414 2.53716 34.9083 2.75959 34.6084C2.62932 34.0038 1.75904 33.1938 2.55417 32.2047C2.75747 31.9516 3.28659 31.7773 3.78019 31.7997C4.41802 31.8287 4.61783 32.0827 5.06891 32.1689C5.20616 31.892 5.30318 31.0972 5.81682 30.7669C6.4173 30.3807 6.98681 30.6642 7.63512 30.8011C7.62449 30.7905 7.60794 30.7603 7.60202 30.7704L6.85305 30.3644C5.37378 29.9319 5.07589 31.5974 4.8606 31.8461H4.8603ZM6.17012 32.6379C5.83975 32.6772 5.00757 32.0737 4.31721 32.9357C3.62335 33.802 4.49242 34.7504 4.51139 34.8237C4.13197 35.3154 4.00171 35.2352 4.24797 36.0224L4.35577 35.654C4.37095 35.543 4.39676 35.4166 4.43396 35.316C4.53326 35.0477 4.67431 34.9429 4.80002 34.7699C4.70452 34.3547 3.96284 33.7902 4.53888 33.1025C5.15393 32.3682 5.94603 32.8228 6.29538 32.8591C6.50992 32.4569 6.42049 32.1732 6.75345 31.8614C7.24614 31.4 7.72303 31.7721 7.95396 31.6465C7.36896 31.2515 6.58735 31.3946 6.29523 32.321C6.23981 32.4966 6.24315 32.5184 6.16982 32.6379H6.17012Z" fill="#385D79"/>
<path fill-rule="evenodd" clip-rule="evenodd" d="M16.6413 25.2968C15.6694 25.1686 14.4279 25.7549 13.7076 26.4486C11.5632 28.5143 14.2343 34.435 16.7645 34.2292C17.8732 34.139 18.3844 32.6261 17.7567 31.631C16.9971 30.4264 15.7559 31.0145 14.9494 30.2768C14.203 29.5941 13.8889 28.404 14.4299 27.2218C14.87 26.2599 16.3692 25.5332 16.6413 25.2966V25.2968Z" fill="#385D79"/>
<path fill-rule="evenodd" clip-rule="evenodd" d="M17.156 24.1088C16.7333 23.7332 15.0706 23.0965 14.3434 22.9567C13.1769 22.7328 11.9627 23.0229 11.0785 23.5111C10.212 23.9893 10.0469 24.1823 9.37024 24.7175C8.79648 25.1715 8.25885 25.656 7.8061 26.1786C7.5284 26.4991 7.07033 26.8678 7.19908 27.5399C7.29276 28.029 7.74324 28.4904 8.33294 28.2633C8.89972 28.0448 8.98049 27.673 9.26153 27.1963L10.0863 26.0223C11.4327 24.2392 13.0844 23.2758 15.5346 23.7211C16.0786 23.8199 16.6387 24.0424 17.156 24.1088Z" fill="#385D79"/>
<path d="M49.0878 21.5536C48.8303 20.4646 48.9967 19.3917 49.5867 18.3347C50.1767 17.2776 51.0564 16.2634 52.2258 15.2918C53.3952 14.3202 54.7844 13.418 56.3936 12.5853C58.0029 11.7524 59.6926 11.021 61.4628 10.3911C63.2329 9.76115 65.0137 9.25934 66.8053 8.88567C68.5969 8.51199 70.265 8.29848 71.81 8.24514C73.3547 8.19165 74.7013 8.31979 75.8491 8.6294C76.997 8.93901 77.8178 9.46756 78.3112 10.2149C78.676 10.7701 78.8156 11.3414 78.7296 11.9286C78.6439 12.5157 78.4239 13.0603 78.0698 13.5621C77.7157 14.0639 77.2921 14.4962 76.7985 14.8593C76.3051 15.2224 75.8438 15.468 75.4146 15.5961C74.9641 15.7243 74.5563 15.7456 74.1916 15.6602C73.8269 15.5748 73.5265 15.4467 73.2905 15.2758C73.0544 15.1049 72.899 14.9289 72.824 14.7474C72.7488 14.5659 72.7972 14.4431 72.9686 14.379C73.2905 14.2509 73.7571 14.0321 74.3687 13.7225C74.9802 13.4128 75.5488 13.0659 76.0745 12.6815C76.6001 12.2971 77.0079 11.9021 77.2974 11.4964C77.5871 11.0907 77.5924 10.717 77.3135 10.3752C76.9917 9.99098 76.4284 9.76659 75.6238 9.70253C74.8191 9.63846 73.859 9.69195 72.7433 9.86269C71.6275 10.0336 70.4153 10.2951 69.1066 10.6474C67.7977 10.9997 66.4836 11.4 65.164 11.8485C63.8445 12.2968 62.5678 12.7775 61.3342 13.2898C60.1004 13.8024 59.0223 14.2935 58.0996 14.7632C57.6919 14.9553 57.2038 15.2116 56.6352 15.5319C56.0666 15.8522 55.4713 16.2152 54.8491 16.6209C54.2267 17.0266 53.6208 17.4643 53.0306 17.9341C52.4406 18.4039 51.9417 18.8844 51.5341 19.3755C51.1264 19.8667 50.8314 20.3685 50.6491 20.8809C50.4667 21.3935 50.472 21.8845 50.6651 22.3543C50.8153 22.7174 51.0836 22.9575 51.4698 23.0749C51.8559 23.1925 52.2638 23.2458 52.6927 23.2351C53.1219 23.2245 53.5295 23.1818 53.9157 23.1071C54.3019 23.0323 54.5594 22.9948 54.6882 22.9948C55.8682 22.3329 57.0054 21.7884 58.0996 21.3613C59.1938 20.9343 60.197 20.6086 61.1088 20.3844C62.0207 20.1602 62.82 20.032 63.5065 20C64.1932 19.968 64.7295 20.0266 65.1158 20.1762C65.6522 20.3684 65.7809 20.646 65.5019 21.0089C65.2229 21.372 64.6865 21.7564 63.8928 22.162C63.0989 22.5677 62.1334 22.9521 60.9962 23.315C59.859 23.6781 58.7218 23.9557 57.5846 24.1478C57.3057 24.2118 56.9087 24.3827 56.3936 24.6603C55.8788 24.9379 55.3263 25.2742 54.7363 25.6692C54.1463 26.0642 53.5616 26.5019 52.9822 26.9824C52.4028 27.4629 51.9094 27.938 51.5017 28.4078C51.0941 28.8776 50.7991 29.3206 50.6167 29.737C50.4342 30.1535 50.4611 30.511 50.697 30.81C50.9759 31.1944 51.5231 31.3384 52.3385 31.2425C53.1538 31.1464 54.1247 30.9063 55.2511 30.5219C56.3777 30.1374 57.6113 29.6304 58.9523 29.0004C60.2934 28.3705 61.629 27.7085 62.9592 27.0146C64.2895 26.3206 65.5661 25.6266 66.7891 24.9326C68.012 24.2387 69.0742 23.6141 69.9753 23.0588C70.1685 22.9308 70.3455 22.8292 70.5063 22.7544C70.6672 22.6798 70.7799 22.6478 70.8441 22.6583C70.9085 22.6691 70.9139 22.7437 70.8602 22.8826C70.8066 23.0214 70.6618 23.2295 70.4257 23.5072C70.1254 23.8703 69.5674 24.4148 68.7522 25.1408C67.9369 25.8668 66.9606 26.6302 65.8234 27.4309C64.6862 28.2317 63.4364 29.0217 62.074 29.8011C60.7115 30.5805 59.349 31.2157 57.9866 31.7068C56.6241 32.198 55.3047 32.4862 54.028 32.5717C52.7514 32.6571 51.6195 32.4115 50.6327 31.8349C49.9461 31.4507 49.458 30.9594 49.1683 30.3617C48.8786 29.7638 48.8036 29.1231 48.943 28.4398C49.0823 27.7565 49.4419 27.0465 50.0211 26.3099C50.6005 25.5731 51.4266 24.8738 52.4994 24.2118C51.6839 24.0409 50.9492 23.726 50.2947 23.267C49.6403 22.8079 49.238 22.2368 49.0878 21.5533V21.5536ZM78.4396 20.9131C78.9331 20.6141 79.2336 20.5287 79.3408 20.6568C79.4481 20.785 79.3301 21.0199 78.9867 21.3614C78.6218 21.7031 78.2357 22.0502 77.8281 22.4024C77.4204 22.7547 77.0181 23.0858 76.6212 23.3954C76.2243 23.705 75.8328 23.9666 75.4465 24.1801C75.0604 24.3936 74.7062 24.5325 74.3845 24.5965C74.1055 24.6393 73.7837 24.6446 73.419 24.6125C73.0541 24.5805 72.7108 24.4897 72.3891 24.3403C72.0672 24.1908 71.7991 23.9826 71.5844 23.7158C71.3699 23.4488 71.2625 23.1018 71.2625 22.6748C71.2625 22.4185 71.461 21.8847 71.8579 21.0733C72.2547 20.2619 72.7805 19.3223 73.4349 18.2546C74.0893 17.1869 74.8296 16.0499 75.6557 14.8433C76.4817 13.6369 77.34 12.4999 78.2304 11.4322C79.1209 10.3645 79.9953 9.43568 80.8534 8.64556C81.7117 7.85545 82.4948 7.34291 83.2028 7.1081C83.4174 7.02273 83.7178 6.99069 84.1041 7.012C84.4902 7.0333 84.8656 7.10266 85.2305 7.22007C85.5953 7.33762 85.9118 7.50837 86.1799 7.7326C86.4482 7.95684 86.5822 8.2184 86.5822 8.51728C86.5822 8.85892 86.3891 9.3287 86.0028 9.92661C85.6167 10.5245 85.1017 11.1918 84.4581 11.9286C83.8144 12.6652 83.0742 13.4553 82.2373 14.2988C81.4006 15.1422 80.5209 15.9804 79.5983 16.8132C78.6756 17.646 77.7531 18.4414 76.8304 19.1995C75.9078 19.9575 75.0496 20.6248 74.2557 21.2014C74.0196 21.5217 73.8265 21.8208 73.6763 22.0982C73.5476 22.3332 73.4457 22.5627 73.3705 22.7869C73.2955 23.0112 73.3116 23.1659 73.419 23.2513C73.4834 23.3153 73.7407 23.2513 74.1913 23.0591C74.6418 22.867 75.1407 22.632 75.6879 22.3545C76.2351 22.0769 76.7715 21.7939 77.2971 21.5057C77.8228 21.2174 78.2036 21.0199 78.4396 20.9133V20.9131ZM84.9408 8.6776C84.855 8.57077 84.6566 8.63484 84.3455 8.8698C84.0342 9.10476 83.6535 9.45698 83.2028 9.92691C82.7523 10.3967 82.2588 10.9464 81.7225 11.5763C81.1861 12.2063 80.6389 12.8523 80.0811 13.5142C78.7722 15.0945 77.3132 16.9202 75.704 18.9914C75.9829 18.7779 76.4228 18.4042 77.0235 17.8702C77.6243 17.3364 78.2842 16.7119 79.0029 15.9964C79.7217 15.2811 80.4619 14.5337 81.2236 13.7543C81.9853 12.9749 82.6612 12.2383 83.2513 11.5443C83.8413 10.8503 84.3027 10.2417 84.6352 9.71854C84.9677 9.19543 85.0697 8.84834 84.941 8.6776H84.9408ZM86.1638 21.0092C86.5714 20.7103 86.7968 20.6142 86.8397 20.7209C86.8827 20.8277 86.8075 21.0305 86.6144 21.3295C86.4213 21.6499 86.1477 22.0236 85.7936 22.4506C85.4396 22.8777 85.048 23.2834 84.6189 23.6677C84.1897 24.0521 83.7391 24.3937 83.2672 24.6926C82.7952 24.9917 82.3553 25.1731 81.9477 25.2372C81.6687 25.28 81.3039 25.2106 80.8534 25.0291C80.4028 24.8475 79.9683 24.586 79.55 24.2445C79.1315 23.9028 78.7829 23.5077 78.504 23.0592C78.2251 22.6109 78.1286 22.1517 78.2143 21.6819C78.2787 21.2977 78.4396 20.9293 78.6971 20.5769C78.9546 20.2245 79.2443 19.9149 79.5662 19.6481C79.8881 19.3812 80.2151 19.1676 80.5478 19.0074C80.8803 18.8472 81.1647 18.7672 81.4006 18.7672C81.5936 18.7672 81.8136 18.8206 82.0603 18.9273C82.307 19.0342 82.5323 19.1729 82.7363 19.3438C82.94 19.5147 83.1009 19.7121 83.2191 19.9362C83.337 20.1605 83.3853 20.39 83.3638 20.625C83.3208 20.8598 83.16 21.1321 82.8809 21.4417C82.602 21.7513 82.2909 22.0556 81.9477 22.3545C81.5614 22.6961 81.1108 23.0485 80.5959 23.4116C81.068 23.5396 81.8242 23.3903 82.8648 22.9631C83.9055 22.5359 85.0052 21.8847 86.1638 21.0092ZM82.3661 20.4006C82.2803 20.3365 82.0819 20.3847 81.7706 20.5447C81.4595 20.7049 81.1537 20.9131 80.8534 21.1694C80.553 21.4255 80.3009 21.7085 80.097 22.0181C79.8933 22.3277 79.845 22.5893 79.9522 22.8028C80.0809 22.7387 80.2901 22.5893 80.5798 22.3543C80.8695 22.1194 81.1592 21.8632 81.4489 21.5857C81.7386 21.3081 81.9798 21.0573 82.173 20.8329C82.3661 20.6086 82.4305 20.4645 82.3661 20.4004V20.4006ZM87.2258 19.5358C87.376 19.4504 87.5744 19.4077 87.8213 19.4077C88.068 19.4077 88.3094 19.4397 88.5454 19.5038C88.7813 19.5678 88.9852 19.6585 89.1569 19.7761C89.3285 19.8935 89.4037 20.0269 89.3823 20.1763C89.3823 20.3685 89.2588 20.6141 89.0121 20.9131C88.7654 21.2121 88.5026 21.5056 88.2236 21.7939C87.9447 22.0822 87.698 22.333 87.4833 22.5467C87.2688 22.7602 87.1936 22.867 87.258 22.867C87.3224 22.867 87.4618 22.7816 87.6765 22.6107C87.891 22.4398 88.143 22.2263 88.4329 21.9701C88.7226 21.7139 89.0337 21.4309 89.3662 21.1213C89.6987 20.8117 90.0152 20.5181 90.3157 20.2406C90.616 19.963 90.8841 19.7282 91.1202 19.536C91.3563 19.3438 91.5171 19.2262 91.6031 19.1836C91.7962 19.1195 91.9999 19.1141 92.2146 19.1676C92.4292 19.2209 92.6331 19.2957 92.8262 19.3918C93.0193 19.4879 93.1803 19.6053 93.309 19.7442C93.4378 19.883 93.5129 20.0165 93.5343 20.1446C93.5557 20.4222 93.3842 20.8011 93.0193 21.2816C92.6545 21.7622 92.2146 22.344 91.6998 23.0273C92.322 22.3868 92.912 21.7995 93.4699 21.2656C93.942 20.8172 94.3871 20.3849 94.8056 19.9684C95.224 19.552 95.5189 19.2904 95.6906 19.1837C95.8407 19.0769 96.0392 19.0449 96.2859 19.0876C96.5326 19.1304 96.7687 19.2211 96.994 19.3599C97.2194 19.4986 97.407 19.6748 97.5572 19.8883C97.7073 20.1018 97.7717 20.3153 97.7503 20.5289C97.7289 20.6357 97.6323 20.8064 97.4606 21.0414C97.2889 21.2764 97.0797 21.5272 96.833 21.794C96.5862 22.061 96.334 22.3386 96.0767 22.6269C95.8192 22.9152 95.5939 23.1768 95.4007 23.4116C95.2076 23.6464 95.0736 23.8333 94.9984 23.972C94.9234 24.1109 94.9501 24.1695 95.0789 24.1482C95.1647 24.1269 95.4114 23.972 95.8192 23.6839C96.2269 23.3956 96.672 23.0752 97.1548 22.723C97.6376 22.3706 98.1042 22.0397 98.5548 21.73C99.0053 21.4204 99.3166 21.2123 99.4881 21.1055C99.853 20.9133 100.116 20.8385 100.277 20.8812C100.438 20.924 100.368 21.1269 100.068 21.4899C99.8958 21.6821 99.6438 21.9704 99.3111 22.3548C98.9786 22.7392 98.6084 23.1394 98.2008 23.5559C97.7931 23.9723 97.3853 24.3513 96.9778 24.6929C96.5701 25.0346 96.2054 25.2482 95.8836 25.3336C95.5617 25.4404 95.2239 25.4617 94.8698 25.3977C94.5157 25.3336 94.1939 25.2268 93.9042 25.0773C93.6145 24.9279 93.3678 24.7464 93.164 24.5328C92.9601 24.3193 92.8474 24.1056 92.826 23.8922C92.826 23.7854 92.8637 23.6413 92.9387 23.4598C93.0138 23.2782 93.1104 23.0914 93.2284 22.8992C93.3464 22.707 93.459 22.5308 93.5662 22.3708C93.6735 22.2106 93.7486 22.1092 93.7915 22.0665C93.577 22.28 93.3195 22.5415 93.0192 22.8511C92.7187 23.1608 92.4131 23.4598 92.102 23.7479C91.7909 24.0362 91.4904 24.2871 91.2009 24.5007C90.9112 24.7142 90.6805 24.8316 90.5088 24.8531C90.2299 24.9172 89.9402 24.8477 89.6399 24.6449C89.3394 24.4421 89.1893 24.2232 89.1893 23.9883C89.1893 23.903 89.243 23.7428 89.3502 23.5078C89.4576 23.2729 89.5808 23.0273 89.7204 22.7711C89.8599 22.5148 89.994 22.2693 90.1227 22.0343C90.2515 21.7995 90.3265 21.6286 90.348 21.5219C89.6615 22.1411 89.0391 22.6857 88.4815 23.1555C87.9879 23.5825 87.5213 23.9616 87.0814 24.2925C86.6416 24.6234 86.3574 24.8103 86.2286 24.8531C86.1213 24.8959 85.9764 24.8959 85.7941 24.8531C85.6117 24.8103 85.4347 24.741 85.2631 24.6449C85.0914 24.5488 84.9359 24.4314 84.7964 24.2925C84.657 24.1538 84.5766 24.0096 84.555 23.8601C84.512 23.7106 84.6034 23.4117 84.8286 22.9633C85.0539 22.5148 85.3221 22.0505 85.6333 21.5699C85.9444 21.0894 86.2555 20.6464 86.5666 20.2407C86.8777 19.835 87.0977 19.6002 87.2263 19.5361L87.2258 19.5358ZM107.405 21.0091C107.813 20.7102 108.038 20.6141 108.081 20.7208C108.124 20.8276 108.049 21.0304 107.856 21.3294C107.663 21.6497 107.389 22.0234 107.035 22.4504C106.681 22.8776 106.289 23.2833 105.86 23.6676C105.431 24.052 104.981 24.3936 104.509 24.6925C104.037 24.9915 103.597 25.173 103.189 25.2371C102.91 25.2798 102.545 25.2105 102.095 25.029C101.644 24.8474 101.21 24.5858 100.791 24.2443C100.373 23.9027 100.024 23.5075 99.7455 23.0591C99.4666 22.6107 99.37 22.1515 99.4558 21.6818C99.5202 21.2975 99.6811 20.9291 99.9386 20.5768C100.196 20.2244 100.486 19.9148 100.808 19.6479C101.13 19.3811 101.457 19.1674 101.789 19.0073C102.122 18.8471 102.406 18.767 102.642 18.767C102.835 18.767 103.055 18.8205 103.302 18.9272C103.548 19.034 103.774 19.1727 103.978 19.3436C104.181 19.5145 104.342 19.712 104.461 19.9361C104.578 20.1603 104.627 20.3898 104.605 20.6248C104.562 20.8596 104.401 21.1319 104.122 21.4415C103.843 21.7511 103.532 22.0554 103.189 22.3543C102.803 22.696 102.352 23.0483 101.837 23.4114C102.309 23.5394 103.066 23.3901 104.106 22.963C105.147 22.5358 106.247 21.8845 107.405 21.0091ZM103.608 20.4004C103.522 20.3363 103.323 20.3846 103.012 20.5446C102.701 20.7047 102.395 20.913 102.095 21.1692C101.794 21.4253 101.542 21.7084 101.338 22.018C101.135 22.3276 101.086 22.5891 101.194 22.8026C101.322 22.7386 101.532 22.5891 101.821 22.3542C102.111 22.1192 102.401 21.8631 102.69 21.5855C102.98 21.3079 103.221 21.0571 103.414 20.8327C103.608 20.6085 103.672 20.4643 103.608 20.4003V20.4004ZM108.178 19.5677C108.306 19.4396 108.462 19.3915 108.644 19.4237C108.827 19.4557 108.998 19.5304 109.159 19.6479C109.32 19.7653 109.465 19.9148 109.594 20.0962C109.722 20.2779 109.797 20.4432 109.819 20.5928C109.862 20.7422 109.857 20.9291 109.803 21.1534C109.749 21.3776 109.674 21.6018 109.578 21.8261C109.481 22.0503 109.39 22.2531 109.304 22.4347C109.218 22.6162 109.165 22.7496 109.143 22.835C109.251 22.7709 109.497 22.5521 109.884 22.1784C110.27 21.8048 110.677 21.4043 111.107 20.9773C111.536 20.5502 111.938 20.1659 112.313 19.8243C112.689 19.4826 112.93 19.2904 113.037 19.2477C113.123 19.205 113.274 19.1996 113.488 19.2318C113.703 19.2638 113.917 19.3279 114.132 19.424C114.346 19.5201 114.539 19.6375 114.711 19.7764C114.883 19.9151 114.99 20.07 115.033 20.2407C115.076 20.4116 114.995 20.6892 114.791 21.0734C114.588 21.4578 114.368 21.8581 114.132 22.2745C113.896 22.691 113.687 23.0647 113.504 23.3957C113.322 23.7266 113.284 23.9241 113.391 23.9882C113.499 24.0523 113.735 23.9669 114.1 23.7319C114.464 23.497 114.867 23.2088 115.306 22.8672C115.746 22.5255 116.159 22.1784 116.545 21.8262C116.932 21.4738 117.211 21.223 117.382 21.0734C117.554 20.924 117.699 20.8439 117.817 20.8332C117.935 20.8226 118.026 20.8598 118.09 20.9453C118.155 21.0307 118.181 21.1375 118.171 21.2656C118.16 21.3938 118.112 21.5325 118.026 21.6821C117.919 21.8315 117.693 22.0931 117.35 22.4667C117.007 22.8404 116.626 23.2354 116.208 23.652C115.789 24.0684 115.387 24.4474 115.001 24.789C114.614 25.1307 114.314 25.3336 114.1 25.3977C113.778 25.5258 113.418 25.5631 113.021 25.5098C112.624 25.4563 112.244 25.3604 111.879 25.2215C111.514 25.0826 111.208 24.9012 110.962 24.6769C110.715 24.4527 110.581 24.2232 110.559 23.9882C110.538 23.9028 110.575 23.7319 110.672 23.4758C110.769 23.2195 110.881 22.9633 111.01 22.707C111.139 22.4507 111.262 22.2159 111.38 22.0024C111.498 21.7889 111.557 21.6715 111.557 21.65C111.557 21.65 111.402 21.8155 111.09 22.1466C110.779 22.4775 110.425 22.8351 110.028 23.2195C109.632 23.6038 109.234 23.9563 108.837 24.2765C108.441 24.5968 108.156 24.757 107.985 24.757C107.706 24.757 107.416 24.6663 107.116 24.4849C106.815 24.3032 106.633 24.0311 106.569 23.668C106.547 23.5186 106.574 23.257 106.649 22.8833C106.724 22.5097 106.831 22.1147 106.971 21.6982C107.11 21.2818 107.282 20.8761 107.486 20.4811C107.689 20.0861 107.92 19.7818 108.178 19.5683V19.5677ZM118.09 17.3577C118.198 17.2508 118.873 17.176 120.118 17.1334C120.461 16.8346 120.783 16.5889 121.084 16.3968C121.384 16.2046 121.674 16.1085 121.952 16.1085C122.21 16.1085 122.489 16.21 122.789 16.4128C123.09 16.6158 123.326 16.8453 123.497 17.1016C124.592 17.1016 125.761 17.0908 127.005 17.0695C128.25 17.0482 129.516 17.016 130.803 16.9734C132.434 16.9307 134.032 16.8666 135.598 16.7812C137.165 16.6958 138.581 16.6103 139.847 16.5251C141.113 16.4397 142.164 16.3649 143.001 16.3009C143.838 16.2368 144.352 16.2048 144.546 16.2048C144.91 16.2048 145.313 16.2635 145.753 16.3809C146.192 16.4984 146.595 16.6372 146.96 16.7974C147.324 16.9576 147.608 17.1283 147.812 17.3099C148.016 17.4914 148.054 17.6569 147.925 17.8063C147.839 17.8917 147.421 17.9397 146.67 17.9504C145.919 17.961 144.927 17.961 143.693 17.9504C142.459 17.9397 141.032 17.9239 139.412 17.9024C137.792 17.8811 136.076 17.8649 134.263 17.8543C132.45 17.8436 130.599 17.8436 128.711 17.8543C126.823 17.8649 124.988 17.913 123.208 17.9983C122.971 18.1692 122.671 18.4255 122.306 18.767C121.942 19.1086 121.566 19.4823 121.18 19.8882C120.794 20.2939 120.413 20.7209 120.037 21.1694C119.662 21.6177 119.345 22.0341 119.088 22.4185C118.831 22.8029 118.653 23.1391 118.557 23.4275C118.46 23.7158 118.487 23.9132 118.637 24.0199C118.766 24.1053 119.067 24.0093 119.539 23.7316C120.011 23.454 120.52 23.123 121.067 22.7387C121.614 22.3543 122.14 21.9754 122.644 21.6017C123.149 21.2279 123.497 20.9878 123.69 20.8809C124.076 20.6248 124.355 20.5713 124.527 20.7208C124.699 20.8702 124.688 21.0731 124.495 21.3294C124.388 21.4575 124.13 21.7297 123.722 22.1463C123.315 22.5627 122.837 22.9897 122.29 23.4273C121.743 23.865 121.174 24.2547 120.584 24.5964C119.994 24.938 119.485 25.1088 119.056 25.1088C118.176 25.1088 117.602 24.8685 117.334 24.3882C117.066 23.9077 116.985 23.3099 117.092 22.5946C117.2 21.8793 117.457 21.1106 117.865 20.2885C118.273 19.4665 118.734 18.7242 119.249 18.0624C118.24 17.8489 117.854 17.6139 118.09 17.3578L118.09 17.3577ZM125.171 20.913C125.621 20.8489 126.045 20.8436 126.442 20.8969C126.839 20.9504 127.193 21.0411 127.504 21.1692C127.815 21.2974 128.062 21.4681 128.245 21.6816C128.427 21.8951 128.518 22.1407 128.518 22.4184C128.518 22.696 128.427 23.027 128.245 23.4114C128.062 23.7957 127.826 24.1694 127.537 24.5325C127.247 24.8956 126.914 25.2265 126.539 25.5255C126.163 25.8244 125.804 26.0166 125.461 26.102C125.096 26.1873 124.742 26.1766 124.399 26.0699C124.055 25.9631 123.749 25.8029 123.481 25.5894C123.213 25.3759 122.993 25.1357 122.822 24.8687C122.65 24.6018 122.564 24.3616 122.564 24.1481C122.564 23.9986 122.623 23.8279 122.741 23.6357C122.859 23.4435 123.015 23.2566 123.208 23.0751C123.401 22.8936 123.615 22.7227 123.851 22.5627C124.087 22.4025 124.324 22.2691 124.559 22.1623C124.924 21.9914 125.139 21.9861 125.203 22.1464C125.267 22.3066 125.192 22.5041 124.978 22.7389C124.913 22.8029 124.811 22.9151 124.672 23.0751C124.533 23.2352 124.393 23.3954 124.254 23.5556C124.114 23.7158 123.996 23.8706 123.899 24.0199C123.803 24.1694 123.787 24.2762 123.851 24.3403C123.959 24.4256 124.146 24.3777 124.414 24.1963C124.683 24.0146 124.951 23.7798 125.219 23.4915C125.487 23.2032 125.723 22.9151 125.927 22.6268C126.131 22.3385 126.222 22.1195 126.201 21.9701C126.158 21.8206 126.007 21.7513 125.75 21.762C125.493 21.7726 125.203 21.7833 124.881 21.794C124.559 21.8048 124.232 21.7835 123.899 21.73C123.567 21.6766 123.315 21.5219 123.143 21.2656C122.95 20.9881 122.87 20.6732 122.902 20.3208C122.934 19.9684 123.036 19.6321 123.207 19.3117C123.379 18.9915 123.599 18.7193 123.867 18.495C124.135 18.2708 124.398 18.1374 124.656 18.0947C124.827 18.0734 125.01 18.1053 125.203 18.1908C125.396 18.2762 125.573 18.3883 125.734 18.5271C125.895 18.6659 126.029 18.8206 126.136 18.9915C126.243 19.1624 126.297 19.3225 126.297 19.472C126.297 19.7709 126.158 20.0166 125.879 20.2088C125.6 20.4009 125.364 20.6358 125.171 20.9134L125.171 20.913Z" fill="white"/>
<path d="M71.4141 34.7618V29.8241H74.7608V30.4034H72.0722V31.9412H74.4005V32.5205H72.0722V34.7618H71.4141ZM75.5359 30.5137V29.8241H76.1457V30.5137H75.5359ZM75.5359 34.7618V31.1827H76.1457V34.7618H75.5359ZM77.0753 34.7618V31.1827H77.6226V31.6908C77.8861 31.3011 78.2672 31.107 78.7649 31.107C78.9821 31.107 79.1806 31.146 79.362 31.223C79.5434 31.3001 79.6796 31.4024 79.7697 31.5276C79.8597 31.6529 79.9233 31.8023 79.9591 31.9747C79.981 32.0873 79.9925 32.2839 79.9925 32.5643V34.762H79.3828V32.5875C79.3828 32.3403 79.3597 32.1553 79.3123 32.0334C79.265 31.9116 79.1807 31.8138 79.0606 31.7404C78.9405 31.668 78.7984 31.6311 78.6367 31.6311C78.378 31.6311 78.1551 31.7127 77.967 31.8771C77.7787 32.0403 77.6852 32.3519 77.6852 32.8093V34.7621H77.0755L77.0753 34.7618ZM83.2781 34.3135C83.0517 34.5056 82.8334 34.6399 82.6245 34.7192C82.4154 34.7984 82.1915 34.8375 81.9513 34.8375C81.5564 34.8375 81.2526 34.7422 81.0402 34.5501C80.8276 34.3593 80.7213 34.1145 80.7213 33.8168C80.7213 33.6422 80.7617 33.4823 80.8414 33.3375C80.9222 33.1928 81.0274 33.0778 81.1566 32.9905C81.287 32.9031 81.4326 32.8365 81.5954 32.7916C81.7155 32.7606 81.8969 32.7307 82.1383 32.7008C82.6303 32.6434 82.994 32.5733 83.2262 32.4927C83.2286 32.4101 83.2297 32.3572 83.2297 32.3353C83.2297 32.0893 83.172 31.9158 83.0564 31.8146C82.9005 31.6778 82.6684 31.61 82.3612 31.61C82.0737 31.61 81.8611 31.6606 81.7249 31.7605C81.5875 31.8605 81.487 32.0376 81.4211 32.2927L80.8252 32.21C80.8795 31.956 80.9683 31.7502 81.0931 31.594C81.2178 31.4376 81.398 31.3181 81.6337 31.2331C81.8682 31.1493 82.1418 31.1067 82.4514 31.1067C82.7586 31.1067 83.0092 31.1422 83.2021 31.2147C83.3938 31.2871 83.5358 31.3768 83.6258 31.4859C83.7158 31.5952 83.7795 31.7331 83.8164 31.8996C83.8361 32.0032 83.8464 32.1893 83.8464 32.4572V33.2618C83.8464 33.8238 83.8592 34.1789 83.8845 34.3295C83.9088 34.48 83.9595 34.6239 84.0335 34.7617H83.3959C83.3347 34.6341 83.2956 34.4847 83.2781 34.3134V34.3135ZM83.2297 32.9687C83.0079 33.0583 82.6754 33.1343 82.2319 33.1963C81.9801 33.2319 81.8022 33.2721 81.6983 33.3168C81.5945 33.3617 81.5146 33.4271 81.4581 33.5124C81.4015 33.5985 81.3727 33.694 81.3727 33.7998C81.3727 33.9595 81.4339 34.094 81.5574 34.2008C81.681 34.3076 81.8611 34.3617 82.098 34.3617C82.3324 34.3617 82.5414 34.3112 82.725 34.2088C82.9075 34.1077 83.0426 33.9685 83.128 33.7928C83.1937 33.6561 83.226 33.4549 83.226 33.1895L83.2295 32.9687H83.2297ZM84.783 34.7617V31.1825H85.3304V31.6907C85.5938 31.301 85.9749 31.1068 86.4726 31.1068C86.6899 31.1068 86.8883 31.1458 87.0697 31.2229C87.2512 31.2999 87.3874 31.4022 87.4774 31.5275C87.5674 31.6527 87.6311 31.8022 87.6669 31.9746C87.6887 32.0872 87.7003 32.2838 87.7003 32.5642V34.7618H87.0905V32.5873C87.0905 32.3401 87.0675 32.1552 87.0201 32.0332C86.9727 31.9114 86.8885 31.8137 86.7684 31.7402C86.6483 31.6679 86.5062 31.631 86.3445 31.631C86.0857 31.631 85.8629 31.7126 85.6747 31.877C85.4865 32.0402 85.3929 32.3517 85.3929 32.8091V34.762H84.7832L84.783 34.7617ZM90.9859 33.4515L91.5818 33.5341C91.5161 33.9421 91.3496 34.2605 91.0806 34.4915C90.8114 34.7227 90.4801 34.8375 90.0886 34.8375C89.5977 34.8375 89.2028 34.6778 88.9047 34.3582C88.6056 34.0388 88.4567 33.5813 88.4567 32.9859C88.4567 32.5997 88.5212 32.263 88.6495 31.9734C88.7777 31.6849 88.9729 31.4676 89.2362 31.3239C89.4984 31.1792 89.7837 31.1068 90.0933 31.1068C90.4824 31.1068 90.8023 31.2044 91.0495 31.401C91.2977 31.5976 91.4571 31.8768 91.5265 32.2378L90.9374 32.3274C90.881 32.0872 90.7815 31.9068 90.6371 31.7848C90.4939 31.6642 90.3207 31.6032 90.1174 31.6032C89.8103 31.6032 89.5608 31.7123 89.3678 31.9308C89.1761 32.1503 89.0803 32.4951 89.0803 32.9687C89.0803 33.4492 89.1726 33.7973 89.3575 34.0146C89.5435 34.2319 89.7847 34.341 90.0816 34.341C90.3218 34.341 90.5216 34.2686 90.6808 34.1227C90.8413 33.9779 90.943 33.7537 90.9857 33.4515H90.9859ZM92.1017 30.5137V29.8241H92.7114V30.5137H92.1017ZM92.1017 34.7618V31.1827H92.7114V34.7618H92.1017ZM95.9901 34.3135C95.7638 34.5056 95.5454 34.6399 95.3365 34.7192C95.1274 34.7984 94.9035 34.8375 94.6633 34.8375C94.2684 34.8375 93.9646 34.7422 93.7522 34.5501C93.5396 34.3593 93.4333 34.1145 93.4333 33.8168C93.4333 33.6422 93.4737 33.4823 93.5534 33.3375C93.6342 33.1928 93.7394 33.0778 93.8686 32.9905C93.9991 32.9031 94.1447 32.8365 94.3074 32.7916C94.4275 32.7606 94.609 32.7307 94.8504 32.7008C95.3423 32.6434 95.7061 32.5733 95.9382 32.4927C95.9406 32.4101 95.9417 32.3572 95.9417 32.3353C95.9417 32.0893 95.884 31.9158 95.7685 31.8146C95.6125 31.6778 95.3804 31.61 95.0732 31.61C94.7857 31.61 94.5731 31.6606 94.4369 31.7605C94.2995 31.8605 94.199 32.0376 94.1331 32.2927L93.5372 32.21C93.5916 31.956 93.6804 31.7502 93.8052 31.594C93.9298 31.4376 94.11 31.3181 94.3457 31.2331C94.5803 31.1493 94.8539 31.1067 95.1634 31.1067C95.4706 31.1067 95.7213 31.1422 95.9141 31.2147C96.1058 31.2871 96.2478 31.3768 96.3378 31.4859C96.4279 31.5952 96.4915 31.7331 96.5284 31.8996C96.5481 32.0032 96.5584 32.1893 96.5584 32.4572V33.2618C96.5584 33.8238 96.5712 34.1789 96.5965 34.3295C96.6208 34.48 96.6715 34.6239 96.7455 34.7617H96.108C96.0468 34.6341 96.0076 34.4847 95.9901 34.3134V34.3135ZM95.9417 32.9687C95.7199 33.0583 95.3874 33.1343 94.9439 33.1963C94.6922 33.2319 94.5142 33.2721 94.4104 33.3168C94.3065 33.3617 94.2267 33.4271 94.1702 33.5124C94.1135 33.5985 94.0847 33.694 94.0847 33.7998C94.0847 33.9595 94.1459 34.094 94.2695 34.2008C94.3931 34.3076 94.5731 34.3617 94.81 34.3617C95.0444 34.3617 95.2535 34.3112 95.437 34.2088C95.6195 34.1077 95.7547 33.9685 95.84 33.7928C95.9057 33.6561 95.9381 33.4549 95.9381 33.1895L95.9416 32.9687H95.9417ZM97.4811 34.7617V29.824H98.091V34.7617H97.4811ZM100.821 33.1756L101.438 33.1204C101.467 33.3688 101.535 33.572 101.642 33.7319C101.75 33.8906 101.916 34.0193 102.141 34.1181C102.366 34.2157 102.621 34.2653 102.902 34.2653C103.153 34.2653 103.374 34.2284 103.565 34.1538C103.757 34.0791 103.899 33.9767 103.992 33.8469C104.086 33.7171 104.133 33.5757 104.133 33.424C104.133 33.27 104.088 33.1355 103.998 33.0195C103.908 32.9046 103.759 32.8079 103.551 32.7287C103.418 32.6781 103.124 32.5977 102.668 32.4885C102.211 32.3794 101.893 32.277 101.71 32.1804C101.474 32.0563 101.298 31.9024 101.183 31.7195C101.066 31.5367 101.008 31.3311 101.008 31.1045C101.008 30.854 101.08 30.6207 101.222 30.4046C101.364 30.1874 101.57 30.0231 101.844 29.9104C102.117 29.7978 102.421 29.7415 102.754 29.7415C103.122 29.7415 103.446 29.7999 103.727 29.9184C104.007 30.0357 104.223 30.2093 104.375 30.4391C104.526 30.6679 104.607 30.9276 104.618 31.2173L103.988 31.2656C103.954 30.954 103.84 30.7185 103.645 30.56C103.449 30.4003 103.161 30.3208 102.78 30.3208C102.382 30.3208 102.093 30.3932 101.911 30.5381C101.73 30.6828 101.639 30.8576 101.639 31.0622C101.639 31.2393 101.703 31.3851 101.832 31.5001C101.959 31.6139 102.288 31.7322 102.821 31.8517C103.355 31.9723 103.721 32.077 103.92 32.1666C104.207 32.2989 104.421 32.4655 104.558 32.6691C104.696 32.8714 104.764 33.1047 104.764 33.369C104.764 33.6322 104.689 33.8782 104.537 34.1103C104.386 34.3425 104.17 34.5229 103.887 34.6517C103.604 34.7804 103.287 34.8448 102.932 34.8448C102.484 34.8448 102.109 34.7794 101.806 34.6494C101.502 34.5196 101.266 34.3241 101.094 34.0621C100.92 33.8011 100.83 33.5057 100.821 33.1759L100.821 33.1756ZM105.353 32.9722C105.353 32.3113 105.538 31.8215 105.908 31.5032C106.217 31.2389 106.594 31.1067 107.039 31.1067C107.532 31.1067 107.936 31.2676 108.25 31.5894C108.564 31.9101 108.721 32.3549 108.721 32.9216C108.721 33.3814 108.651 33.7422 108.513 34.0054C108.374 34.2686 108.172 34.4732 107.906 34.6192C107.642 34.7652 107.352 34.8377 107.039 34.8377C106.535 34.8377 106.129 34.678 105.818 34.3572C105.508 34.0365 105.353 33.5745 105.353 32.9722H105.353ZM105.977 32.9732C105.977 33.4308 106.077 33.7733 106.278 33.9997C106.48 34.2274 106.733 34.341 107.039 34.341C107.342 34.341 107.594 34.2272 107.795 33.9986C107.996 33.7698 108.097 33.4215 108.097 32.9537C108.097 32.5124 107.995 32.1778 107.793 31.9515C107.591 31.7239 107.339 31.6101 107.039 31.6101C106.733 31.6101 106.48 31.7229 106.278 31.9492C106.077 32.1757 105.977 32.5171 105.977 32.9732ZM109.422 34.7617V29.824H110.031V34.7617H109.422ZM113.324 34.7617V34.2295C113.044 34.6352 112.666 34.8375 112.186 34.8375C111.975 34.8375 111.778 34.7973 111.594 34.7168C111.41 34.6352 111.274 34.5341 111.185 34.4123C111.096 34.2893 111.034 34.1399 110.998 33.9629C110.974 33.8434 110.961 33.655 110.961 33.3975V31.1827H111.571V33.1632C111.571 33.4791 111.583 33.6931 111.608 33.8022C111.646 33.9619 111.727 34.0861 111.851 34.1768C111.975 34.2676 112.127 34.3135 112.31 34.3135C112.492 34.3135 112.663 34.2676 112.823 34.1745C112.982 34.0814 113.095 33.9537 113.162 33.7942C113.228 33.6345 113.262 33.401 113.262 33.0965V31.1828H113.871V34.762H113.324V34.7617ZM116.152 34.2203L116.235 34.7559C116.064 34.7916 115.911 34.8099 115.777 34.8099C115.556 34.8099 115.386 34.7754 115.263 34.7053C115.142 34.6354 115.056 34.5444 115.007 34.4306C114.957 34.3168 114.933 34.0778 114.933 33.7135V31.6515H114.482V31.1825H114.933V30.2975L115.543 29.9332V31.1825H116.152V31.6515H115.543V33.7479C115.543 33.9215 115.553 34.0331 115.575 34.0825C115.596 34.1319 115.63 34.1709 115.679 34.2008C115.727 34.2295 115.797 34.2445 115.887 34.2445C115.954 34.2445 116.043 34.2364 116.152 34.2203ZM116.754 30.5136V29.824H117.364V30.5136H116.754ZM116.754 34.7617V31.1825H117.364V34.7617H116.754ZM118.065 32.9722C118.065 32.3113 118.25 31.8215 118.62 31.5032C118.929 31.2389 119.306 31.1067 119.751 31.1067C120.244 31.1067 120.648 31.2676 120.962 31.5894C121.276 31.9101 121.433 32.3549 121.433 32.9216C121.433 33.3814 121.363 33.7422 121.225 34.0054C121.086 34.2686 120.884 34.4732 120.618 34.6192C120.354 34.7652 120.064 34.8377 119.751 34.8377C119.247 34.8377 118.841 34.678 118.53 34.3572C118.22 34.0365 118.065 33.5745 118.065 32.9722H118.065ZM118.689 32.9732C118.689 33.4308 118.789 33.7733 118.99 33.9997C119.192 34.2274 119.445 34.341 119.751 34.341C120.054 34.341 120.306 34.2272 120.507 33.9986C120.708 33.7698 120.809 33.4215 120.809 32.9537C120.809 32.5124 120.707 32.1778 120.505 31.9515C120.303 31.7239 120.051 31.6101 119.751 31.6101C119.445 31.6101 119.192 31.7229 118.99 31.9492C118.789 32.1757 118.689 32.5171 118.689 32.9732ZM122.148 34.7617V31.1825H122.695V31.6907C122.958 31.301 123.339 31.1068 123.837 31.1068C124.054 31.1068 124.253 31.1458 124.434 31.2229C124.616 31.2999 124.752 31.4022 124.842 31.5275C124.932 31.6527 124.996 31.8022 125.031 31.9746C125.053 32.0872 125.065 32.2838 125.065 32.5642V34.7618H124.455V32.5873C124.455 32.3401 124.432 32.1552 124.385 32.0332C124.337 31.9114 124.253 31.8137 124.133 31.7402C124.013 31.6679 123.871 31.631 123.709 31.631C123.45 31.631 123.227 31.7126 123.039 31.877C122.851 32.0402 122.757 32.3517 122.757 32.8091V34.762H122.148L122.148 34.7617ZM125.759 33.6928L126.362 33.5962C126.395 33.8365 126.49 34.0204 126.645 34.1491C126.799 34.2766 127.016 34.341 127.294 34.341C127.574 34.341 127.782 34.2848 127.918 34.1709C128.053 34.0583 128.122 33.9249 128.122 33.7721C128.122 33.6354 128.06 33.5273 127.939 33.4492C127.854 33.3951 127.646 33.3274 127.315 33.2434C126.87 33.1319 126.561 33.0353 126.388 32.9537C126.216 32.8711 126.086 32.7584 125.997 32.6136C125.908 32.4699 125.863 32.3102 125.863 32.1354C125.863 31.9757 125.9 31.8285 125.973 31.6928C126.046 31.5572 126.146 31.4445 126.272 31.3549C126.366 31.286 126.496 31.2274 126.659 31.179C126.822 31.1308 126.997 31.1067 127.184 31.1067C127.466 31.1067 127.713 31.1469 127.925 31.2285C128.139 31.309 128.296 31.4193 128.398 31.5573C128.498 31.6963 128.569 31.8814 128.607 32.1135L128.011 32.1963C127.984 32.01 127.906 31.8641 127.776 31.7596C127.647 31.655 127.465 31.6032 127.228 31.6032C126.949 31.6032 126.75 31.6491 126.631 31.7411C126.512 31.833 126.452 31.9412 126.452 32.0642C126.452 32.1423 126.476 32.2136 126.525 32.2768C126.575 32.3412 126.653 32.3951 126.759 32.4377C126.82 32.4607 126.998 32.5125 127.296 32.5929C127.726 32.7067 128.026 32.801 128.197 32.8734C128.368 32.9457 128.502 33.0527 128.599 33.1905C128.697 33.3295 128.745 33.5019 128.745 33.7089C128.745 33.9101 128.686 34.0997 128.567 34.2778C128.448 34.456 128.277 34.594 128.054 34.6916C127.83 34.7892 127.577 34.8375 127.296 34.8375C126.829 34.8375 126.472 34.741 126.227 34.5491C125.982 34.356 125.827 34.0708 125.758 33.6928H125.759Z" fill="#EF7F1A"/>
</g>
<defs>
<clipPath id="clip0_812_2605">
<rect width="148" height="40" fill="white"/>
</clipPath>
</defs>
</svg>
