<svg width="18" height="16" viewBox="0 0 18 16" fill="none" xmlns="http://www.w3.org/2000/svg">
<path fill-rule="evenodd" clip-rule="evenodd" d="M0.997389 15.1781H4.28541V5.13436H0.997389V15.1781ZM2.52609 3.87653H2.55244C3.79122 3.87653 4.56216 3.10296 4.55557 2.13443C4.52921 1.14074 3.78463 0.392334 2.57221 0.392334C1.3598 0.392334 0.5625 1.14074 0.5625 2.13443C0.5625 3.10925 1.33344 3.87653 2.52609 3.87653ZM13.708 15.1781H17.4375V9.59337C17.4375 6.48653 15.6057 5.04002 13.2665 5.04002C11.382 5.04002 10.2025 6.02113 9.98509 6.71294V5.13436H6.28853C6.33466 5.97082 6.28853 15.1781 6.28853 15.1781H9.98509V9.7506C9.98509 9.71617 9.98492 9.68181 9.98476 9.64765C9.98346 9.37607 9.98221 9.11666 10.0642 8.92672C10.3145 8.32296 10.8615 7.69404 11.8432 7.69404C13.1281 7.69404 13.708 8.62484 13.708 9.9833V15.1781Z" fill="white"/>
</svg>
